<svg xmlns="http://www.w3.org/2000/svg" xmlns:xlink="http://www.w3.org/1999/xlink" width="482.854" height="290" viewBox="0 0 482.854 290">
  <defs>
    <clipPath id="clip-path">
      <rect id="Rectangle_674" data-name="Rectangle 674" width="160.022" height="48.252" fill="none"/>
    </clipPath>
  </defs>
  <g id="Group_18097" data-name="Group 18097" transform="translate(-559.146 -1691)">
    <g id="Group_943" data-name="Group 943">
      <rect id="Rectangle_599" data-name="Rectangle 599" width="370" height="290" transform="translate(672 1691)" fill="rgba(255,255,255,0)"/>
      <g id="Group_937" data-name="Group 937" transform="translate(414.595 -707.512)">
        <g id="Group_689" data-name="Group 689" transform="translate(-487.518 1324.037)">
          <g id="Group_686" data-name="Group 686" transform="translate(777.922 1106.476)">
            <g id="Group_680" data-name="Group 680" transform="translate(56.195)">
              <path id="Path_302" data-name="Path 302" d="M937.844,1153.738c9.261,2.333,26.326,10.634,29.905,24.837,5.357,21.325-5.375,52.626,11.615,83.241,5.423,9.759-93.852,22.875-93.852,22.875l-19.154-107.737s23.931-23.381,28.82-24.96C905.315,1148.733,919.34,1149.079,937.844,1153.738Z" transform="translate(-859.304 -1118.827)" fill="#8dcfff"/>
              <g id="Group_676" data-name="Group 676" transform="translate(0 57.975)">
                <path id="Path_303" data-name="Path 303" d="M863.389,1187.754c-3.449,8.615-12.155,59.83-2.446,71.906,1.122,1.388-5.039,3.562-3.923,9.937.183,1.064,2.043,6.146,2.043,6.146l7.933,2.068,23.976-13.656-4.594-5.591-2.171.046s-2.05-1.914-1.48-4.268-5.5-6.166-14.673-45.911C865.356,1196.728,864.148,1185.855,863.389,1187.754Z" transform="translate(-856.495 -1187.537)" fill="#7dc2f5"/>
                <path id="Path_304" data-name="Path 304" d="M875.844,1284.179l7.092-1.563,2.871-.459a5.277,5.277,0,0,0,1.58,3.4l-5.5.172-6.442,1.383-7.784,4.441Z" transform="translate(-859.675 -1214.485)" fill="#8dcfff"/>
              </g>
              <g id="Group_678" data-name="Group 678" transform="translate(39.262 45.418)">
                <g id="Group_677" data-name="Group 677">
                  <path id="Path_305" data-name="Path 305" d="M944.31,1270.245s-8.354,21.156-28.41,26.823c-3.472.976-5.6,4.727-3.926,5.929,2.141,1.551,5.081,1.886,10.116,1.869,10.481-.029,24.757-3.284,34.633-12.848,14.614-14.148,19.216-20.58,17.735-27.7S944.31,1270.245,944.31,1270.245Z" transform="translate(-911.392 -1196.241)" fill="#f7b68b"/>
                  <path id="Path_306" data-name="Path 306" d="M987.283,1177.183c4.238,6.984,6.7,18.2,6.669,34.257-.031,12.42-10.741,32.765-12.387,39.016-.272,1.045-.925,5.519-.925,5.519l-11.878,11.656-23.812-16.144,7.239-11.121,2.157.226s1.368-6.126,1.006-8.518,6.594-34.435,10.042-54.977C967.376,1165.26,983.072,1170.258,987.283,1177.183Z" transform="translate(-920.949 -1169.979)" fill="#7dc2f5"/>
                  <path id="Path_307" data-name="Path 307" d="M969.707,1267.014l-6.94-2.156-2.822-.694a5.247,5.247,0,0,1-1.858,3.25l5.466.63,6.3,1.926,7.381,5.076Z" transform="translate(-924.691 -1196.804)" fill="#8dcfff"/>
                </g>
              </g>
              <path id="Path_308" data-name="Path 308" d="M934.3,1142.642a10.161,10.161,0,0,1-6.2,12.909l-1.774.622a10.147,10.147,0,0,1-12.9-6.206l-4.336-12.38a10.16,10.16,0,0,1,6.205-12.907l1.772-.621a10.149,10.149,0,0,1,12.9,6.208Z" transform="translate(-871.311 -1111.322)" fill="#e4eef3"/>
              <g id="Group_679" data-name="Group 679" transform="translate(22.163)">
                <path id="Path_309" data-name="Path 309" d="M900.387,1158.408a4.78,4.78,0,0,0,5.883,3.333l20.765-5.722a4.8,4.8,0,0,0,3.346-5.89l-8.477-30.777a4.785,4.785,0,0,0-5.888-3.339l-20.761,5.722a4.789,4.789,0,0,0-3.343,5.89Z" transform="translate(-888.695 -1109.142)" fill="#f7b68b"/>
                <path id="Path_310" data-name="Path 310" d="M892.414,1136.675s-3.606-2.21-4.628-3.9c-.508-.848-.571-4.6,1.363-6.583s4.547-.009,4.547-.009-3.122,3.066-3.1,3.889S892.414,1136.675,892.414,1136.675Z" transform="translate(-887.483 -1111.84)" fill="#163f59"/>
                <path id="Path_311" data-name="Path 311" d="M926.792,1129.95s-.115-12.7-1.652-15.99c-1.533-3.314-2.578-5.608-6.916-4.829-6.486,1.176-6.188,2.545-9.8,1.465s-10.415-4.183-12.446-4.119c-3.384.1-8.06,2.532-6.608,8.544a6.829,6.829,0,0,1-1.288,6.424c.392.472,1.7.659,3.986,1.108,6.558,1.3,10.185.923,14.283-1.455s11.648-7.138,13.509-4.144c1.866,3.015,4.235,13.12,4.833,13.783S926.179,1130.748,926.792,1129.95Z" transform="translate(-887.654 -1106.476)" fill="#194866"/>
                <path id="Path_312" data-name="Path 312" d="M935.692,1150.168a1.6,1.6,0,0,0,1.965,1.116l4.485-1.241a1.6,1.6,0,0,0,1.116-1.962L941,1139.874a1.6,1.6,0,0,0-1.961-1.115L934.55,1140a1.605,1.605,0,0,0-1.116,1.964Z" transform="translate(-900.554 -1115.654)" fill="#f7b68b"/>
                <path id="Path_313" data-name="Path 313" d="M898.282,1160.478a1.594,1.594,0,0,0,1.969,1.114l4.481-1.23a1.6,1.6,0,0,0,1.117-1.958l-2.259-8.218a1.6,1.6,0,0,0-1.965-1.109l-4.489,1.232a1.6,1.6,0,0,0-1.114,1.963Z" transform="translate(-889.899 -1118.592)" fill="#f7b68b"/>
                <path id="Path_314" data-name="Path 314" d="M928.634,1143.834s3.341,12.12,4.454,16.161c1,3.648,1.759,12.065-18.864,17.756-12.2,3.356-14.231-5.742-15.043-8.69-.615-2.244.067-9.669,1-11.312.027-.053,1.377,5,1.377,5a10.12,10.12,0,0,1,7-7.169c9.363-2.578,13,2.315,17.094,1.084C928.808,1155.706,929.771,1149.874,928.634,1143.834Z" transform="translate(-890.747 -1117.115)" fill="#194866"/>
                <path id="Path_315" data-name="Path 315" d="M917.4,1168.746,911,1170.512a1.6,1.6,0,0,1-1.959-1.116l-.249-.891,9.479-2.62.252.9A1.6,1.6,0,0,1,917.4,1168.746Z" transform="translate(-893.551 -1123.395)" fill="#f7b68b"/>
              </g>
            </g>
            <path id="Path_316" data-name="Path 316" d="M778.841,1325.181c2.954,8.179,54.76,38.268,72.118,36.485l52.317,2.5c44.5-5.431,65.556-74.605,65.556-74.605-1.779-17.368-45.608,7.807-61.231,15.608-24.748,12.357-40.389,12.979-40.389,12.979-16.549,1.7-35.744-11.081-56.634-11.521C787.63,1306.131,774.181,1312.3,778.841,1325.181Z" transform="translate(-777.922 -1156.914)" fill="#281616"/>
            <g id="Group_682" data-name="Group 682" transform="translate(106.272 191.346)">
              <path id="Path_317" data-name="Path 317" d="M953.6,1401.449c-6.231,1.074-10.98-6.171-10.98-6.171l-16.1-12.683,3.4-8.576,31.36,14.107S959.83,1400.382,953.6,1401.449Z" transform="translate(-926.513 -1374.018)" fill="#f7b68b"/>
              <path id="Path_318" data-name="Path 318" d="M948.986,1398.871a16.193,16.193,0,0,0,1.187,4.057c1.2,3.3,2.669,4.454,4.23,4.923,6.008,1.762,10.339.871,24.8,3.661s18.8.679,23.025-5.983-.161-11.9-7.208-12.438c-10.212-.774-15.892.392-21.2-.421-5.573-.845-5.922-2.093-9.178-4.09-3.062-1.885-5.871,9.306-2.982,11.9C964.2,1402.768,951.158,1403.117,948.986,1398.871Z" transform="translate(-932.913 -1378.105)" fill="#7dc2f5"/>
              <path id="Path_319" data-name="Path 319" d="M952.9,1407.958c6.008,1.767,10.348.874,24.8,3.664s18.793.682,23.026-5.983c1.959-3.087,2.051-5.837.908-7.983,3.179,2.188,4.267,6.015,1.4,10.519-4.227,6.661-8.567,8.764-23.025,5.983s-18.79-1.9-24.8-3.661a5.6,5.6,0,0,1-3.359-2.981A5.7,5.7,0,0,0,952.9,1407.958Z" transform="translate(-933.733 -1380.75)" fill="#d9e1e4"/>
              <path id="Path_320" data-name="Path 320" d="M949.01,1403.256a1.341,1.341,0,0,1-.024-.2,2,2,0,0,0,.145.225Z" transform="translate(-932.913 -1382.287)" fill="#f7b68b"/>
              <g id="Group_681" data-name="Group 681" transform="translate(37.41 13.473)">
                <path id="Path_321" data-name="Path 321" d="M992.4,1405.631c.467.167.88-.7,1.024-1.933a34.686,34.686,0,0,1,1.671-7.455c.413-1.224.406-2.3-.1-2.441s-1.326.74-1.724,1.928a34.854,34.854,0,0,0-1.576,7.374C991.57,1404.319,991.932,1405.445,992.4,1405.631Z" transform="translate(-982.479 -1393.122)" fill="#d9e1e4"/>
                <path id="Path_322" data-name="Path 322" d="M986.114,1404.769c.5.1.94-.754,1.071-1.915a32.187,32.187,0,0,1,1.651-7.01c.411-1.146.383-2.133-.154-2.21-.539-.057-1.375.8-1.766,1.94a31.8,31.8,0,0,0-1.558,6.939C985.241,1403.653,985.631,1404.656,986.114,1404.769Z" transform="translate(-980.676 -1393.077)" fill="#d9e1e4"/>
                <path id="Path_323" data-name="Path 323" d="M979.557,1404.336c.509.074,1.014-.831,1.2-2.033a35.677,35.677,0,0,1,1.956-7.24c.455-1.179.461-2.183-.106-2.206s-1.444.9-1.89,2.072a34.84,34.84,0,0,0-1.854,7.163C978.693,1403.271,979.049,1404.271,979.557,1404.336Z" transform="translate(-978.82 -1392.856)" fill="#d9e1e4"/>
              </g>
            </g>
            <path id="Path_324" data-name="Path 324" d="M910.326,1365.271s-110.667-45.524-116.991-45.589c-21.37-.2-16.468,21.444-5.639,31.625,12.774,12.01,109.938,33.993,109.938,33.993Z" transform="translate(-778.07 -1167.197)" fill="#3b47bc"/>
            <g id="Group_685" data-name="Group 685" transform="translate(34.431 109.28)">
              <path id="Path_325" data-name="Path 325" d="M895.23,1377.985l30.208-28.657-12.873-12.761-32.988,34.7Z" transform="translate(-841.305 -1281.286)" fill="#f7b68b"/>
              <path id="Path_326" data-name="Path 326" d="M892.711,1333.435s76.882-70.507,82.07-72.613c17.546-7.127,28.423,12.269,27.805,18.961-.8,8.687-78.908,79.309-78.908,79.309Z" transform="translate(-845.045 -1259.273)" fill="#3b47bc"/>
              <g id="Group_684" data-name="Group 684" transform="translate(0 84.252)">
                <path id="Path_327" data-name="Path 327" d="M828.173,1391.759c-1.8,1.667-2.109,6.547-2.109,6.547s25.661,9.714,34.669,9.888c2.345.05,6.558-.893,10.591-2.014.679-.179,2.243-1.942,2.9-2.134,1.231-.364,1.515.834,2.57.5a31.315,31.315,0,0,0,4.75-1.754c5.419-11.531,3.583-17.2,3.583-17.2s-11.787,3.375-9.768.74c4.325-5.651-8.033-11.439-10.789-8.428C853.588,1389.932,833.377,1386.96,828.173,1391.759Z" transform="translate(-826.064 -1377.075)" fill="#7dc2f5"/>
                <path id="Path_328" data-name="Path 328" d="M826.747,1400.959c7.884,3.135,24.452,9.611,27.75,9.835,13.5.965,22.946-3.84,29.249-6.662a51.885,51.885,0,0,1-2.2,5.461,31.315,31.315,0,0,1-4.75,1.754c-1.056.336-1.34-.862-2.57-.5-.659.193-2.223,1.955-2.9,2.134-4.033,1.121-8.246,2.064-10.591,2.014-9.008-.174-34.669-9.888-34.669-9.888A17.746,17.746,0,0,1,826.747,1400.959Z" transform="translate(-826.064 -1383.877)" fill="#d9e1e4"/>
                <g id="Group_683" data-name="Group 683" transform="translate(18.779 5.394)">
                  <path id="Path_329" data-name="Path 329" d="M852.354,1390.3c-.229.443.767.969,2.21,1.275a48.973,48.973,0,0,1,8.66,2.623c1.412.582,2.685.712,2.881.215s-.78-1.419-2.164-1.97a47.976,47.976,0,0,0-8.572-2.527C853.948,1389.636,852.594,1389.863,852.354,1390.3Z" transform="translate(-852.321 -1386.092)" fill="#d9e1e4"/>
                  <path id="Path_330" data-name="Path 330" d="M860.4,1387.489c-.212.461.77,1.1,2.164,1.507a49.771,49.771,0,0,1,8.377,3.295c1.346.681,2.578.892,2.756.376s-.747-1.54-2.084-2.193a49.037,49.037,0,0,0-8.3-3.187C861.933,1386.9,860.621,1387.04,860.4,1387.489Z" transform="translate(-854.615 -1385.313)" fill="#d9e1e4"/>
                  <path id="Path_331" data-name="Path 331" d="M868.156,1385c-.2.477.748,1.216,2.115,1.739a49.978,49.978,0,0,1,8.072,3.924c1.3.776,2.478,1.06,2.639.522s-.715-1.659-2-2.412a48.662,48.662,0,0,0-8.013-3.815C869.623,1384.463,868.356,1384.531,868.156,1385Z" transform="translate(-856.823 -1384.617)" fill="#d9e1e4"/>
                </g>
              </g>
            </g>
          </g>
          <g id="Group_688" data-name="Group 688" transform="translate(787.837 1221.005)">
            <path id="Path_332" data-name="Path 332" d="M802.942,1277.388l27.345,15.864-12.453,19.332-1.669.835-14.957-33.975Z" transform="translate(-794.469 -1269.681)" fill="#c5e1f9"/>
            <path id="Path_333" data-name="Path 333" d="M792.773,1278.017l4.236,1.477,13.1,28.773.77,6.1s-1.862-.128-2.118-.45S792.773,1278.017,792.773,1278.017Z" transform="translate(-792.066 -1269.86)" fill="#003e99"/>
            <path id="Path_334" data-name="Path 334" d="M854.057,1270.384l-4.3.129s-15.663,12.266-20.156,18.432-13.383,16.956-14.058,20.937c-.167.99-.283,1.309-.32,1.573a15.564,15.564,0,0,1,0-1.766s.064-6.744-1.476-10.6-12.2-23.7-12.2-23.7-4.366,1.67-5.2,1.8,14.635,34.168,14.635,34.168a3.5,3.5,0,0,0,3.4,1.188c2.054-.514,3.113,0,4.622-2.023a33.263,33.263,0,0,0,1.6-3.276Z" transform="translate(-793.076 -1267.686)" fill="#eaf4fe"/>
            <path id="Path_335" data-name="Path 335" d="M856.49,1266.676l-1.027-.064-38.129,40.976a2.772,2.772,0,0,0-.193,1.285,2.362,2.362,0,0,1-2.279,2.088c-1.56.137-3.854.5-5.167-.033-1.281-.521-17.2-36.158-17.2-36.158l-.707.321,15.92,34.553s-.385.9.128,1.22a18.4,18.4,0,0,0,3.659,1.541c.642.064,38.836,16.056,38.836,16.056l4.943-1.927,1.54-2.44,25.741-27.1Z" transform="translate(-791.785 -1266.612)" fill="#0450cf"/>
            <path id="Path_336" data-name="Path 336" d="M894.071,1295.09,867.046,1266.7l-38.194,41.425,37.167,17.534,29.784-28.773Z" transform="translate(-802.342 -1266.638)" fill="#0561fc"/>
            <path id="Path_337" data-name="Path 337" d="M923.782,1300.074s-1.812-.824-5.709-2.527-6.588-4.339-7.74-4.23-7.466,3.735-7.466,3.735l-9.223,4.449s-1.756,1.538-1.317,2.472.823.879,1.647.824,9.552-3.241,9.552-3.241l-12.133,6.646-3.513,2.252a3.086,3.086,0,0,0-.824,1.372c-.054.6.22,1.373.988,1.318a4.335,4.335,0,0,0,2.141-.384c.823-.439,6.367-2.966,6.367-2.966s-6.094,2.911-7.191,4.12-1.043,1.757-.823,2.362,1.043.714,1.043.714l4.721-2.472s-1.372.769-1.262,1.1a1.221,1.221,0,0,0,1.153.824c.6-.055,5.874-1.813,5.874-1.813l5.105-1.209,6.643-.714,8.289-2.087s1.483.384,1.647-.11S925.923,1302.161,923.782,1300.074Z" transform="translate(-818.917 -1274.217)" fill="#f7b68b"/>
            <path id="Path_338" data-name="Path 338" d="M862.734,1343.619l-36.718-17.02a4.329,4.329,0,0,1-2.311,1.927c-1.862.835-5.713.642-5.713.642l39.8,16.377S862.541,1345.1,862.734,1343.619Z" transform="translate(-799.249 -1283.697)" fill="#0561fc"/>
            <g id="Group_687" data-name="Group 687" transform="translate(35.562 43.965)">
              <path id="Path_339" data-name="Path 339" d="M841.765,1338.754a3.069,3.069,0,0,0,0,2.5c.578,1.477.706,2.377,2.246,2.89s1.669.578,2.44-.064,4.044-3.147,4.044-3.147l2.568-3.468s.77-1.606-.257-1.991-1.925-.513-3.273.964a16.552,16.552,0,0,1-4.557,3.082C844.223,1339.866,841.765,1338.754,841.765,1338.754Z" transform="translate(-841.508 -1330.118)" fill="#f7b68b"/>
              <path id="Path_340" data-name="Path 340" d="M847.1,1341.794a2.253,2.253,0,0,0,.129,1.927,3.841,3.841,0,0,0,2.7,1.67c.963-.064,7.125-3.276,7.125-3.276l4.686-6.936,3.723-5.652s-.385-1.22-1.156-1.349a2.035,2.035,0,0,0-2.182.579,64.574,64.574,0,0,0-4.044,5.652l-4.236,3.4S848.444,1341.28,847.1,1341.794Z" transform="translate(-843.052 -1328.084)" fill="#f7b68b"/>
              <path id="Path_341" data-name="Path 341" d="M873.357,1330.649s-.321-1.734-1.348-1.541-2.76,1.927-4.622,3.917-2.824,3.148-2.824,3.148l-3.274,2.312-7.317,5.459-.642.835s-.835,1.22.321,1.541,1.926,1.605,3.787.771,7.96-5.4,7.96-5.4l3.851-5.138,2.724-3.918Z" transform="translate(-844.792 -1328.372)" fill="#f7b68b"/>
              <path id="Path_342" data-name="Path 342" d="M874.783,1333.873c.834.032,1.027,1.156,1.027,1.156l-6.162,9.056s-7.189,5.138-7.9,5.523a1.9,1.9,0,0,1-2.568-1.156c-.385-1.285,9.885-9.056,9.885-9.056S873.115,1333.808,874.783,1333.873Z" transform="translate(-846.539 -1329.733)" fill="#f7b68b"/>
            </g>
          </g>
        </g>
        <g id="Group_713" data-name="Group 713" transform="translate(-554.215 2088.682)">
          <g id="Group_710" data-name="Group 710">
            <path id="Path_423" data-name="Path 423" d="M1181.215,389.811v-9.523H1133.6v9.523Z" fill="#c94161" fill-rule="evenodd"/>
            <path id="Path_424" data-name="Path 424" d="M1181.215,351.718v-9.523H1133.6v9.523Z" fill="#c94161" fill-rule="evenodd"/>
            <path id="Path_425" data-name="Path 425" d="M1181.215,370.764v-9.523H1133.6v9.523Z" fill="#eb6a89" fill-rule="evenodd"/>
            <path id="Path_426" data-name="Path 426" d="M1143.122,342.195H1133.6v47.616h9.524V342.195Z" fill="#ff3464" fill-rule="evenodd"/>
          </g>
          <g id="Group_711" data-name="Group 711">
            <path id="Path_427" data-name="Path 427" d="M1123.209,351.354h-9.522v38.093h9.522V351.354Z" fill="#c94161" fill-rule="evenodd"/>
            <path id="Path_428" data-name="Path 428" d="M1113.687,341.83h9.522v9.524h-9.522V341.83Z" fill="#eb6a89" fill-rule="evenodd"/>
            <path id="Path_429" data-name="Path 429" d="M1111.071,351.354h14.756v1.066h-14.756v-1.066Z" fill="#fff" fill-rule="evenodd"/>
          </g>
          <g id="Group_712" data-name="Group 712">
            <path id="Path_430" data-name="Path 430" d="M1084.169,342.106h-9.522v47.616h9.522V342.106Z" fill="#f63" fill-rule="evenodd"/>
            <path id="Path_431" data-name="Path 431" d="M1103.215,351.63v-9.524H1055.6v9.524Z" fill="#f63" fill-rule="evenodd"/>
          </g>
          <path id="Path_432" data-name="Path 432" d="M1037.743,373.423V363.9H990.126v9.523Z" transform="translate(8)" fill="#eb6a89" fill-rule="evenodd"/>
        </g>
      </g>
    </g>
    <g id="Group_18086" data-name="Group 18086" transform="translate(559.146 1778.748)">
      <rect id="Rectangle_668" data-name="Rectangle 668" width="47.616" height="9.523" transform="translate(53.878 38.093)" fill="#c94161"/>
      <rect id="Rectangle_669" data-name="Rectangle 669" width="47.616" height="9.523" transform="translate(53.878)" fill="#c94161"/>
      <rect id="Rectangle_670" data-name="Rectangle 670" width="47.616" height="9.523" transform="translate(53.878 19.046)" fill="#eb6a89"/>
      <rect id="Rectangle_671" data-name="Rectangle 671" width="9.524" height="47.615" transform="translate(53.878 0.001)" fill="#ff3464"/>
      <g id="Group_18085" data-name="Group 18085">
        <g id="Group_18084" data-name="Group 18084" clip-path="url(#clip-path)">
          <path id="Path_13044" data-name="Path 13044" d="M23.807,48.252A23.816,23.816,0,0,0,46.4,31.958H35.957a14.285,14.285,0,1,1-12.15-21.8H38.092V.635H23.807a23.808,23.808,0,0,0,0,47.617" fill="#f63" fill-rule="evenodd"/>
          <rect id="Rectangle_672" data-name="Rectangle 672" width="23.808" height="9.522" transform="translate(23.807 22.435)" fill="#c39"/>
          <rect id="Rectangle_673" data-name="Rectangle 673" width="47.616" height="9.523" transform="translate(112.406 18.705)" fill="#eb6a89"/>
        </g>
      </g>
    </g>
  </g>
</svg>
