<svg xmlns="http://www.w3.org/2000/svg" xmlns:xlink="http://www.w3.org/1999/xlink" width="505.265" height="339.384" viewBox="0 0 505.265 339.384">
  <defs>
    <clipPath id="clip-path">
      <rect id="Rectangle_527" data-name="Rectangle 527" width="181.878" height="151.488" fill="none"/>
    </clipPath>
    <clipPath id="clip-path-2">
      <rect id="Rectangle_531" data-name="Rectangle 531" width="67.056" height="43.173" fill="#7eb2ff"/>
    </clipPath>
    <clipPath id="clip-path-3">
      <rect id="Rectangle_651" data-name="Rectangle 651" width="186.7" height="41.874" fill="none"/>
    </clipPath>
  </defs>
  <g id="Group_18091" data-name="Group 18091" transform="translate(-52.935 -1343.616)">
    <g id="Group_903" data-name="Group 903" transform="translate(-151.479 -112.814)">
      <g id="Group_725" data-name="Group 725" transform="translate(-706.047 -520.234)">
        <path id="Path_433" data-name="Path 433" d="M1316.343,2364.86c-18.614-.136-76.294-.74-111.3-2.588-64.9-3.426-117.924,2.333-83.1,8.855,9.73,1.822-18.347,12.8,50.358,15.234,60.311,2.139,121.8-2.547,151.556-4.56s43.493-5.566,49.87-7.167C1379.332,2373.226,1381.409,2365.336,1316.343,2364.86Z" transform="translate(-9.825 -140.137)" fill="#e8f5ff"/>
        <g id="Group_719" data-name="Group 719" transform="translate(1083.943 1976.664)">
          <g id="Group_715" data-name="Group 715">
            <g id="Group_714" data-name="Group 714">
              <path id="Path_434" data-name="Path 434" d="M1386.161,2160.276V1984.915a8.27,8.27,0,0,0-8.255-8.251H1093.139a8.264,8.264,0,0,0-8.255,8.251v175.361Z" transform="translate(-1084.286 -1976.664)" fill="#0450ce"/>
              <path id="Path_435" data-name="Path 435" d="M1083.943,2266.055v25.359a8.847,8.847,0,0,0,8.853,8.838h284.767a8.843,8.843,0,0,0,8.839-8.838v-25.359Z" transform="translate(-1083.943 -2082.113)" fill="#c4e0f8"/>
              <path id="Path_436" data-name="Path 436" d="M1343.84,2357.2s-2.192-1.07-4.713-2.021c-2.685-1.013-5.916-2.276-7.821-3.187-3.326-1.6-3.615-2.653-4.86-8.1-1.358-5.964-2.639-18.545-3.152-24.031h-63.079c-.523,5.487-1.8,18.067-3.156,24.031-1.248,5.451-1.53,6.5-4.863,8.1-1.895.907-5.061,2.152-7.734,3.16h0c-2.559.959-4.644,1.7-4.644,1.7s-2.037,1.13,1.224,1.288h101.42C1345.52,2358.2,1343.84,2357.2,1343.84,2357.2Z" transform="translate(-1140.512 -2101.717)" fill="#c4e0f8"/>
              <path id="Path_437" data-name="Path 437" d="M1335.621,2326.487c-.282-2.614-.519-4.957-.668-6.631h-63.092c-.152,1.675-.384,4.018-.663,6.631Z" transform="translate(-1152.176 -2101.717)" fill="#99c6f6"/>
              <path id="Path_438" data-name="Path 438" d="M1170.01,2160.275h62.707l114.6-183.612h-62.687Z" transform="translate(-1115.304 -1976.664)" fill="#0561fb"/>
              <path id="Path_439" data-name="Path 439" d="M1296.85,2160.275h22.887l114.6-183.612h-22.884Z" transform="translate(-1161.523 -1976.664)" fill="#0561fb"/>
              <rect id="Rectangle_526" data-name="Rectangle 526" width="273.27" height="153.876" transform="translate(14.591 14.15)" fill="#e9f3fd"/>
            </g>
          </g>
          <g id="Group_718" data-name="Group 718" transform="translate(55.057 18.053)">
            <g id="Group_717" data-name="Group 717" clip-path="url(#clip-path)">
              <g id="Group_716" data-name="Group 716" transform="translate(42.408 8.732)">
                <path id="Path_440" data-name="Path 440" d="M1257.581,2081.33s-26.132-6.224-19.1-21.947,7.706-5.569,8.041-12.121-3.351-21.292,5.7-19.326,15.745,1.31,25.125-3.93,14.071-8.845,17.086.982,2.68,8.517,13.4,9.5,13.735,2.948,10.051,8.516-9.047,7.535-4.021,13.1,6.031,11.137,2.01,15.068-21.945,11.3-21.945,11.3Z" transform="translate(-1237.282 -2018.803)" fill="#212a54"/>
                <path id="Path_441" data-name="Path 441" d="M1331.881,2096.254s8.48-5.5,10.5-1.421,1.052,11.168-2.138,14.633-6.98,8.282-9.437.266S1331.881,2096.254,1331.881,2096.254Z" transform="translate(-1271.044 -2045.959)" fill="#eb9468"/>
                <path id="Path_442" data-name="Path 442" d="M1259.611,2117.058s-3.951-10.435,4.371-9.443c4.6.548,10.222,5.087,11.519,9.572s3.441,10.19-4.8,7.948S1259.611,2117.058,1259.611,2117.058Z" transform="translate(-1245.077 -2051.141)" fill="#eb9468"/>
                <path id="Path_443" data-name="Path 443" d="M1274.437,2141.876s5.528,18.181-1.508,24.077-.5,2.457-18.09,2.948-17.794,42.075-10.257,55.833,50.755,18.672,62.816,12.284,26.337-39.126,26.838-53.375-2.512-18.672-12.562-16.215-27.136-7.37-27.639-24.077S1274.437,2141.876,1274.437,2141.876Z" transform="translate(-1238.224 -2061.334)" fill="#f6b58a"/>
                <path id="Path_444" data-name="Path 444" d="M1313.891,2150.821a23.916,23.916,0,0,1-1.424-7.471c-.5-16.705-19.6-1.474-19.6-1.474s5.528,18.181-1.508,24.077c-.333.278-.634.536-.91.774C1300.935,2165.554,1309.725,2159.353,1313.891,2150.821Z" transform="translate(-1256.656 -2061.334)" fill="#eb9468"/>
                <path id="Path_445" data-name="Path 445" d="M1265.792,2087.833s6.411,22.946,17.589,31.447c7.538,5.733,18.928,1.147,25.629-10.973,6.561-11.87,4.02-52.9-9.045-46.516s-2.011-8.353-9.046-3.439S1295.441,2082.428,1265.792,2087.833Z" transform="translate(-1247.671 -2032.842)" fill="#f6b58a"/>
                <path id="Path_446" data-name="Path 446" d="M1321.675,2184.885c-3.354.82-7.49.266-11.533-1.45-5.39,14.673-16.038,24.413-27.3,23.382-9.341-.854-16.862-8.911-20.592-20.417-1.827-.09-4.22-.13-7.41-.042-17.588.491-17.794,42.075-10.257,55.833s50.755,18.672,62.816,12.284,26.337-39.126,26.838-53.375S1331.724,2182.428,1321.675,2184.885Z" transform="translate(-1238.224 -2078.792)" fill="#ff82a0"/>
                <path id="Path_447" data-name="Path 447" d="M1258.778,2187.959c-1.16-.006-2.461.007-3.94.048-17.588.491-17.794,42.075-10.257,55.833,3,5.473,11.644,9.544,21.726,12.063C1257.02,2236.454,1257.687,2197.808,1258.778,2187.959Z" transform="translate(-1238.224 -2080.441)" fill="#ff6671"/>
                <path id="Path_448" data-name="Path 448" d="M1362.275,2185.348c-.155.037-.313.07-.472.1-3.708,9.018-10.53,44.433-10.512,67.489,33.429,2.734,23.089-38.4,23.546-51.376C1375.34,2187.313,1372.325,2182.891,1362.275,2185.348Z" transform="translate(-1278.825 -2079.256)" fill="#ff6671"/>
                <path id="Path_449" data-name="Path 449" d="M1290.2,2106.386a9.45,9.45,0,1,1-9.447-9.237A9.344,9.344,0,0,1,1290.2,2106.386Z" transform="translate(-1249.679 -2047.351)" fill="none" stroke="#212a54" stroke-miterlimit="10" stroke-width="0.985"/>
                <path id="Path_450" data-name="Path 450" d="M1323.64,2099.847a9.45,9.45,0,1,1-9.447-9.237A9.344,9.344,0,0,1,1323.64,2099.847Z" transform="translate(-1261.865 -2044.969)" fill="none" stroke="#212a54" stroke-miterlimit="10" stroke-width="0.985"/>
                <line id="Line_207" data-name="Line 207" y1="0.768" x2="4.963" transform="translate(39.761 56.819)" fill="none" stroke="#212a54" stroke-miterlimit="10" stroke-width="0.985"/>
                <path id="Path_451" data-name="Path 451" d="M1301.37,2136.864s8.543,2.457,15.076-8.353" transform="translate(-1260.635 -2058.779)" fill="none" stroke="#212a54" stroke-miterlimit="10" stroke-width="0.985"/>
              </g>
            </g>
          </g>
        </g>
        <g id="Group_724" data-name="Group 724" transform="translate(1285.979 2004.335)">
          <rect id="Rectangle_528" data-name="Rectangle 528" width="67.056" height="43.173" transform="translate(0)" fill="#7eb2ff"/>
          <g id="Group_723" data-name="Group 723" transform="translate(0)" clip-path="url(#clip-path-2)">
            <g id="Group_722" data-name="Group 722" transform="translate(2.868 2.528)">
              <path id="Path_452" data-name="Path 452" d="M1433.009,2246.832c.209.281.053,1.021.053,1.021a22.65,22.65,0,0,1-4.886.162,5.977,5.977,0,0,1-1.321-.676c-.083-.053-.229-.363-.309-.415-.149-.1-.227.065-.352-.021a4.057,4.057,0,0,1-.564-.427,4.22,4.22,0,0,1,.116-2.609s3.151-1.159,3.739-.361C1430.865,2245.386,1432.547,2246.218,1433.009,2246.832Z" transform="translate(-1413.308 -2103.993)" fill="#163f59"/>
              <path id="Path_453" data-name="Path 453" d="M1467.947,2243.872l.548,3.007h1.443s.161-.425.408-.425c.209,0,.478.425.762.425h7.435s.134-.633-.029-.85a2.773,2.773,0,0,0-.9-.4c-1.51-.445-5.831-1.836-6.583-3.35C1470.119,2240.435,1467.947,2243.872,1467.947,2243.872Z" transform="translate(-1428.771 -2103.449)" fill="#163f59"/>
              <path id="Path_454" data-name="Path 454" d="M1434.312,2137.445l-3.081-1.713-.364-.384.428-.685.676.083-.118-2.006,3.228-.574,1.654-.773-1.528,5.442" transform="translate(-1415.259 -2063.243)" fill="#f7b68b"/>
              <path id="Path_455" data-name="Path 455" d="M1458.456,2061.386s-3.455,3.8,7.179,13.849,12.572,7.1,12.572,7.1l3.213-2.138,2.383-11.177-5.133-1.19-.557.659a1.947,1.947,0,0,1-1.658-.677,91.922,91.922,0,0,1-9.153-9.956C1464.957,2054.851,1459.116,2060.65,1458.456,2061.386Z" transform="translate(-1425.117 -2036.136)" fill="#d4edff"/>
              <path id="Path_456" data-name="Path 456" d="M1494.614,2069.606s10.724-.195,11.58-11.36c.254-3.317,1.1-.108,1.688,3.062s-1.374,12.1-7.1,15.691-8.177,4.471-10.391,3.006S1494.614,2069.606,1494.614,2069.606Z" transform="translate(-1436.779 -2036.079)" fill="#f7b68b"/>
              <path id="Path_457" data-name="Path 457" d="M1466.646,2221.679s-1.665,2.413-2.89.156c-2.824-5.2-7.019-18.058-7.16-23.909a59.905,59.905,0,0,1,1.219-14.221l8.939-2.918Z" transform="translate(-1424.628 -2081.241)" fill="#163f59"/>
              <path id="Path_458" data-name="Path 458" d="M1464.306,2119.809l.407,38.441-8.126,4.488a55.374,55.374,0,0,1-5.486-20.879c-.259-4.972-.386-16.12,2.394-19.911C1457.262,2116.811,1464.306,2119.809,1464.306,2119.809Z" transform="translate(-1422.586 -2058.705)" fill="#163f59"/>
              <path id="Path_459" data-name="Path 459" d="M1452.091,2119.636l-1.329,13.307-3.61,14.434-3.844,13.489-13.729,37.443-3.995.326s.5-28.108,5.38-36.3c2.579-4.339,2.577-13.963,3.769-24.33.215-1.867-.844-6.084-.673-7.788a27.781,27.781,0,0,1,4.131-11.749Z" transform="translate(-1413.335 -2058.532)" fill="#194866"/>
              <path id="Path_460" data-name="Path 460" d="M1457.028,2097.625l-17.605-.39-7.517-25.172s-4.876-15.22,4.469-15.415,20.115-.2,20.115-.2S1464.208,2070.649,1457.028,2097.625Z" transform="translate(-1415.174 -2035.936)" fill="#d4edff"/>
              <path id="Path_461" data-name="Path 461" d="M1418.27,2109.66l11.148,13.571s-.4,1.976-1.3.926c-.109-.126.432-.524-.248-.9-2.739-1.494-9.172-3.8-11.553-6.1a39.688,39.688,0,0,1-5.36-6.585Z" transform="translate(-1408.006 -2055.324)" fill="#f7b68b"/>
              <path id="Path_462" data-name="Path 462" d="M1457.11,2062.014s8.193,16.2,5.865,34.127a4.123,4.123,0,0,1-1.649,2.421l-2.016-2.019S1459.471,2076.254,1457.11,2062.014Z" transform="translate(-1424.822 -2037.963)" fill="#387bff"/>
              <path id="Path_463" data-name="Path 463" d="M1453.325,2059.86l-.445,3.12-5.352-5.069v-.781Z" transform="translate(-1421.33 -2036.183)" fill="#acd4f8"/>
              <path id="Path_464" data-name="Path 464" d="M1458.476,2058.257l.938,4.06-2.375-2.046Z" transform="translate(-1424.796 -2036.594)" fill="#acd4f8"/>
              <path id="Path_465" data-name="Path 465" d="M1484.277,2077.919l1.4-2.524.617-.978a2.1,2.1,0,0,0,1.426.422l-1.391,1.684-1.275,2.286-.72,3.484Z" transform="translate(-1434.721 -2042.482)" fill="#acd4f8"/>
              <path id="Path_466" data-name="Path 466" d="M1423.892,2071.75l-6.123,17.634-1.327.528.739,1.171-7.552,1.313-3.317-5.762,8.819-23.933a15.712,15.712,0,0,1,11-5.866C1431.64,2056.23,1424.332,2070.282,1423.892,2071.75Z" transform="translate(-1406.312 -2036.068)" fill="#d4edff"/>
              <path id="Path_467" data-name="Path 467" d="M1410.805,2106.359s5.15.965,7.853,1.374l-.578.231.739,1.171-2.616.433-3.807.084-.594-1.408,1.112-.279Z" transform="translate(-1407.949 -2054.121)" fill="#b0bfde"/>
              <path id="Path_468" data-name="Path 468" d="M1446.486,2051.2a19.793,19.793,0,0,0,.948,3.341c.609,1.367,5.891,3.122,6.705,3.318s-.2-4.1-.2-5.073c0-.744-.481-.514.1-1.585Z" transform="translate(-1420.951 -2034.02)" fill="#f7b68b"/>
              <g id="Group_720" data-name="Group 720" transform="translate(21.491)">
                <path id="Path_469" data-name="Path 469" d="M1454.107,2041.251a1.534,1.534,0,0,1-1.271,1.757l-6.813,1.093a1.533,1.533,0,0,1-1.756-1.271l-1.619-10.093a1.533,1.533,0,0,1,1.271-1.756l6.812-1.093a1.534,1.534,0,0,1,1.757,1.271Z" transform="translate(-1441.036 -2026.249)" fill="#f7b68b"/>
                <path id="Path_470" data-name="Path 470" d="M1457.669,2033.132a5.871,5.871,0,0,0,.829-1.751,2.286,2.286,0,0,0-1.271-1.737c-.828-.32-1.327.6-1.327.6s1.316.479,1.421.721S1457.669,2033.132,1457.669,2033.132Z" transform="translate(-1445.873 -2026.143)" fill="#163f59"/>
                <path id="Path_471" data-name="Path 471" d="M1441.77,2035.317s-1.653-3.715-1.646-4.881.008-1.974,1.374-2.323c2.048-.522,2.143-.085,3.052-.878a31.283,31.283,0,0,1,3.079-2.856,2.109,2.109,0,0,1,3.062,1.612,2.2,2.2,0,0,0,1.229,1.7c-.053.19-.406.416-1.014.852-1.741,1.251-2.845,1.621-4.357,1.475s-4.346-.532-4.488.591.509,4.382.424,4.655S1442.052,2035.464,1441.77,2035.317Z" transform="translate(-1440.124 -2024.175)" fill="#194866"/>
                <path id="Rectangle_529" data-name="Rectangle 529" d="M.8,0h.905a.8.8,0,0,1,.8.8v2.14a.8.8,0,0,1-.8.8H.8a.8.8,0,0,1-.8-.8V.8A.8.8,0,0,1,.8,0Z" transform="translate(1.283 11.027) rotate(-9.106)" fill="#f7b68b"/>
                <path id="Rectangle_530" data-name="Rectangle 530" d="M.8,0h.9a.8.8,0,0,1,.8.8V2.942a.806.806,0,0,1-.806.806H.8a.8.8,0,0,1-.8-.8V.8A.8.8,0,0,1,.8,0Z" transform="translate(10.061 9.618) rotate(-9.106)" fill="#f7b68b"/>
                <path id="Path_472" data-name="Path 472" d="M1443.962,2042.929s.637,3.973.85,5.3c.192,1.2,1.09,3.75,7.856,2.665,4.006-.644,3.386-3.565,3.231-4.531a8.709,8.709,0,0,0-1.8-3.162c-.016-.011.263,1.64.263,1.64a3.239,3.239,0,0,0-2.993-1.159c-3.072.494-3.481,2.4-4.841,2.588C1445.489,2046.411,1444.434,2044.837,1443.962,2042.929Z" transform="translate(-1441.523 -2031.008)" fill="#194866"/>
                <path id="Path_473" data-name="Path 473" d="M1453.931,2047.833l2.1-.337a.51.51,0,0,0,.423-.585l-.047-.294-3.111.5.047.294A.509.509,0,0,0,1453.931,2047.833Z" transform="translate(-1444.925 -2032.352)" fill="#f7b68b"/>
              </g>
              <g id="Group_721" data-name="Group 721" transform="translate(68.612 15.049)">
                <path id="Path_474" data-name="Path 474" d="M1514.9,2056.847s-1.015-3.43-.49-4.288,2.638-3.851,2.638-3.851l.606-.711s1.1.283-.344,2.279-.244,1.437-.244,1.437l1.944-1.275,2.5-1.363,1.035-.756s.557-.476.781-.468c.643.025.386.545.386.545l-3.8,3.307,4.272-2.027s.588-.161.772.118c.171.262,0,.36,0,.36l-4.334,3.516,2.313-.779s.578-.143.772.12c.21.287.275.36.275.36l-8.527,4.325Z" transform="translate(-1514.258 -2047.852)" fill="#f7b68b"/>
                <path id="Path_475" data-name="Path 475" d="M1524.1,2054.1l3.083-1.239a2.534,2.534,0,0,1,1.065-.32.461.461,0,0,1,.44.48l-4.479,2.357Z" transform="translate(-1517.846 -2049.559)" fill="#f7b68b"/>
              </g>
            </g>
          </g>
        </g>
      </g>
      <g id="Group_734" data-name="Group 734" transform="translate(-533.185 1383.719)">
        <g id="Group_732" data-name="Group 732">
          <path id="Path_501" data-name="Path 501" d="M785.215,197.811v-9.523H737.6v9.523Z" fill="#c94161" fill-rule="evenodd"/>
          <path id="Path_502" data-name="Path 502" d="M785.215,159.718v-9.523H737.6v9.523Z" fill="#c94161" fill-rule="evenodd"/>
          <path id="Path_503" data-name="Path 503" d="M785.215,178.764v-9.523H737.6v9.523Z" fill="#eb6a89" fill-rule="evenodd"/>
          <path id="Path_504" data-name="Path 504" d="M747.122,150.195H737.6v47.616h9.524V150.195Z" fill="#ff3464" fill-rule="evenodd"/>
        </g>
        <g id="Group_733" data-name="Group 733">
          <path id="Path_505" data-name="Path 505" d="M840.255,198.365H826.787l-10.339-10.341-10.341,10.341H792.639l17.075-17.074,6.734-6.734,6.733,6.734,17.075,17.074Z" fill="#d12a51" fill-rule="evenodd"/>
          <path id="Path_506" data-name="Path 506" d="M792.639,150.749h13.468l10.341,10.341,10.339-10.341h13.468L823.18,167.823l-6.733,6.734-6.734-6.734-17.075-17.074Z" fill="#f2535f" fill-rule="evenodd"/>
          <path id="Path_507" data-name="Path 507" d="M806.107,150.749h20.68l-10.339,10.341-10.341-10.341Z" fill-rule="evenodd"/>
          <path id="Path_508" data-name="Path 508" d="M806.107,198.365l10.341-10.341,10.339,10.341Z" fill-rule="evenodd"/>
        </g>
        <path id="Path_509" data-name="Path 509" d="M893.743,179.423V169.9H846.126v9.523Z" fill="#eb6a89" fill-rule="evenodd"/>
      </g>
    </g>
    <g id="Group_18078" data-name="Group 18078" transform="translate(371.5 1641.126)">
      <path id="Path_13023" data-name="Path 13023" d="M177.881,23.914l20.66,20.659h11.686L189.568,23.914Z" transform="translate(-23.527 -3.163)" fill="#ff99e4"/>
      <g id="Group_18077" data-name="Group 18077" transform="translate(0 0)">
        <g id="Group_18076" data-name="Group 18076" clip-path="url(#clip-path-3)">
          <path id="Path_13024" data-name="Path 13024" d="M167.542.1h28.925a12.391,12.391,0,1,1,0,24.783H167.542ZM175.8,8.369v8.255h20.663a4.127,4.127,0,1,0,0-8.255Z" transform="translate(-22.16 -0.014)" fill="#ff6671" fill-rule="evenodd"/>
          <path id="Path_13025" data-name="Path 13025" d="M177.064,17.884h20.663a4.127,4.127,0,1,0,0-8.255H177.064Z" transform="translate(-23.419 -1.273)" fill="#620034" fill-rule="evenodd"/>
          <rect id="Rectangle_649" data-name="Rectangle 649" width="8.263" height="41.318" transform="translate(145.382 0.092)" fill="#d12a51"/>
          <path id="Path_13026" data-name="Path 13026" d="M85.041,0,64.1,41.872v0h9.362L89.723,9.363Z" transform="translate(-8.479 0)" fill="#c809ca" fill-rule="evenodd"/>
          <path id="Path_13027" data-name="Path 13027" d="M82.838,9.363,99.095,41.875h9.362v0L87.519,0Z" transform="translate(-10.956 0)" fill="#e32d59" fill-rule="evenodd"/>
          <path id="Path_13028" data-name="Path 13028" d="M91.92,28.953l4.188,8.375h9.363l-4.188-8.375Z" transform="translate(-12.158 -3.829)" fill="#f69" fill-rule="evenodd"/>
          <path id="Path_13029" data-name="Path 13029" d="M94.494,37.329l-4.188-8.375h-6.4L79.72,37.329Z" transform="translate(-10.544 -3.829)" fill="#ff99e4" fill-rule="evenodd"/>
          <path id="Path_13030" data-name="Path 13030" d="M90.944,27.978l-3.2-6.4-3.2,6.4Z" transform="translate(-11.182 -2.854)" fill-rule="evenodd"/>
          <path id="Path_13031" data-name="Path 13031" d="M136.041,0,115.1,41.872v0h9.362L140.723,9.363Z" transform="translate(-15.224 0)" fill="#c809ca" fill-rule="evenodd"/>
          <path id="Path_13032" data-name="Path 13032" d="M133.837,9.363l16.257,32.511h9.362v0L138.519,0Z" transform="translate(-17.702 0)" fill="#e32d59" fill-rule="evenodd"/>
          <path id="Path_13033" data-name="Path 13033" d="M142.919,28.953l4.188,8.375h9.363l-4.188-8.375Z" transform="translate(-18.903 -3.829)" fill="#f69" fill-rule="evenodd"/>
          <path id="Path_13034" data-name="Path 13034" d="M145.494,37.329l-4.188-8.375h-6.4l-4.188,8.375Z" transform="translate(-17.29 -3.829)" fill="#ff99e4" fill-rule="evenodd"/>
          <path id="Path_13035" data-name="Path 13035" d="M141.944,27.978l-3.2-6.4-3.2,6.4Z" transform="translate(-17.928 -2.854)" fill-rule="evenodd"/>
          <rect id="Rectangle_650" data-name="Rectangle 650" width="41.318" height="8.263" transform="translate(0 16.4)" fill="#eb6a89"/>
        </g>
      </g>
    </g>
  </g>
</svg>
