<svg xmlns="http://www.w3.org/2000/svg" width="514.129" height="290" viewBox="0 0 514.129 290">
  <g id="Group_18098" data-name="Group 18098" transform="translate(-672 -1288)">
    <g id="Group_942" data-name="Group 942">
      <rect id="Rectangle_598" data-name="Rectangle 598" width="370" height="290" transform="translate(672 1288)" fill="rgba(255,255,255,0)"/>
      <g id="Group_904" data-name="Group 904" transform="translate(469.891 -627.653)">
        <g id="Group_709" data-name="Group 709" transform="translate(285.109 2008.361)">
          <g id="Group_707" data-name="Group 707" transform="translate(60.346 0.098)">
            <path id="Path_414" data-name="Path 414" d="M1056.909,204.75V194.288H1004.6V204.75Z" transform="translate(-1004.599 -152.44)" fill="#c94161" fill-rule="evenodd"/>
            <path id="Path_415" data-name="Path 415" d="M1056.909,166.657V156.195H1004.6v10.462Z" transform="translate(-1004.599 -156.195)" fill="#c94161" fill-rule="evenodd"/>
            <path id="Path_416" data-name="Path 416" d="M1056.909,185.7V175.241H1004.6V185.7Z" transform="translate(-1004.599 -154.317)" fill="#eb6a89" fill-rule="evenodd"/>
            <path id="Path_417" data-name="Path 417" d="M1015.061,156.195H1004.6V208.5h10.463v-52.31Z" transform="translate(-1004.599 -156.195)" fill="#ff3464" fill-rule="evenodd"/>
          </g>
          <g id="Group_708" data-name="Group 708" transform="translate(0 0)">
            <path id="Path_418" data-name="Path 418" d="M1000.959,206.069,974.8,179.915h-14.8l26.155,26.154Z" transform="translate(-948.649 -153.759)" fill="#ff99e4" fill-rule="evenodd"/>
            <path id="Path_419" data-name="Path 419" d="M949.668,156.106h36.62a15.734,15.734,0,0,1,15.69,15.687h0a15.734,15.734,0,0,1-15.69,15.688h-36.62V156.106Zm10.461,10.463v10.45h26.159a5.225,5.225,0,1,0,0-10.45Z" transform="translate(-949.668 -156.106)" fill="#ff6671" fill-rule="evenodd"/>
            <path id="Path_420" data-name="Path 420" d="M959.19,176.08h26.159a5.241,5.241,0,0,0,5.227-5.226h0a5.24,5.24,0,0,0-5.227-5.224H959.19v10.45Z" transform="translate(-948.729 -155.167)" fill="#620034" fill-rule="evenodd"/>
            <path id="Path_421" data-name="Path 421" d="M960.129,156.106H949.668v52.31h10.461v-52.31Z" transform="translate(-949.668 -156.106)" fill="#d12a51" fill-rule="evenodd"/>
          </g>
          <path id="Path_422" data-name="Path 422" d="M1115.437,185.362V174.9h-52.31v10.462Z" transform="translate(-938.483 -154.253)" fill="#eb6a89" fill-rule="evenodd"/>
        </g>
        <g id="Group_675" data-name="Group 675" transform="translate(398.946 1948.653)">
          <path id="Path_267" data-name="Path 267" d="M1280.533,622.129c-10.45-1.646-26.007-.863-40.361-7.85-26.851-13.07-68.83-14.677-95.6,7.712s-20.71,40.471,23.558,41.433c32.5.706,48.334-8.313,66.112-5.638,33.1,4.981,60.059-3.775,65.87-16.557S1294.427,624.318,1280.533,622.129Z" transform="translate(-1128.547 -439.234)" fill="#e9f6ff"/>
          <g id="Group_674" data-name="Group 674" transform="translate(27.45)">
            <g id="Group_672" data-name="Group 672">
              <path id="Path_268" data-name="Path 268" d="M1317.769,276.125s12.356-11.1,2.825-28.719c-5.283-9.767-2.511-36.451,14.591-28.17s12.471-2.043,22.127,2.562,13.933,11.534,12.632,19.094-.455,21.962,5.482,24.732,34.388,18.26,16.054,37.828S1306.47,308.652,1317.769,276.125Z" transform="translate(-1263.579 -217.665)" fill="#212957"/>
              <g id="Group_671" data-name="Group 671" transform="translate(37.833 74.239)">
                <g id="Group_666" data-name="Group 666" transform="translate(62.182 13.321)">
                  <path id="Path_269" data-name="Path 269" d="M1429.572,484.845a9.534,9.534,0,0,0,6.312-2.283c3.171-2.759,4.543-7.667,4.08-14.582-.309-4.669-2.146-9.394-4.089-14.4-3.275-8.419-6.983-17.961-5.044-30.58l-3.6-.555c-2.086,13.587,1.981,24.05,5.245,32.458,1.921,4.941,3.582,9.211,3.856,13.319.372,5.609-.594,9.606-2.8,11.558a6.039,6.039,0,0,1-4.818,1.355l-.731,3.574A8.455,8.455,0,0,0,1429.572,484.845Z" transform="translate(-1426.657 -422.444)" fill="#367082"/>
                </g>
                <g id="Group_669" data-name="Group 669" transform="translate(2.444 88.546)">
                  <g id="Group_667" data-name="Group 667" transform="translate(2.892 16.114)">
                    <path id="Path_270" data-name="Path 270" d="M1363.355,636.064l-3.55,5.418,29.819,9.557s1.994-1.906-5.325-5.733C1375.782,640.845,1363.355,636.064,1363.355,636.064Z" transform="translate(-1331.544 -636.064)" fill="#88bdda"/>
                    <path id="Path_271" data-name="Path 271" d="M1320.225,636.064l3.55,5.418-29.818,9.557s-1.991-1.906,5.325-5.733C1307.8,640.845,1320.225,636.064,1320.225,636.064Z" transform="translate(-1293.709 -636.064)" fill="#88bdda"/>
                  </g>
                  <rect id="Rectangle_524" data-name="Rectangle 524" width="6.231" height="22.196" transform="translate(28.94)" fill="#88bdda"/>
                  <g id="Group_668" data-name="Group 668" transform="translate(6.311 17.257)">
                    <path id="Path_272" data-name="Path 272" d="M1364.973,638.737l-3.037,5.169,25.526,9.119s1.7-1.818-4.556-5.472A199.612,199.612,0,0,0,1364.973,638.737Z" transform="translate(-1336.181 -638.737)" fill="#acd5f4"/>
                    <path id="Path_273" data-name="Path 273" d="M1324.405,638.737l3.034,5.169-25.524,9.119s-1.7-1.818,4.558-5.472A199.331,199.331,0,0,1,1324.405,638.737Z" transform="translate(-1301.703 -638.737)" fill="#acd5f4"/>
                  </g>
                  <path id="Path_274" data-name="Path 274" d="M1414.873,674.054a2.165,2.165,0,1,0,2.164-2.17A2.165,2.165,0,0,0,1414.873,674.054Z" transform="translate(-1360.173 -640.454)" fill="#001f46"/>
                  <path id="Path_275" data-name="Path 275" d="M1299.2,674.054a2.167,2.167,0,1,0,2.169-2.17A2.168,2.168,0,0,0,1299.2,674.054Z" transform="translate(-1293.958 -640.454)" fill="#001f46"/>
                  <path id="Path_276" data-name="Path 276" d="M1427.132,674.054a2.165,2.165,0,1,0,2.164-2.17A2.163,2.163,0,0,0,1427.132,674.054Z" transform="translate(-1367.191 -640.454)" fill="#367082"/>
                  <path id="Path_277" data-name="Path 277" d="M1286.944,674.054a2.163,2.163,0,1,0,2.166-2.17A2.165,2.165,0,0,0,1286.944,674.054Z" transform="translate(-1286.944 -640.454)" fill="#367082"/>
                </g>
                <rect id="Rectangle_525" data-name="Rectangle 525" width="4.558" height="7.982" transform="translate(32.301 80.412)" fill="#367082"/>
                <path id="Path_278" data-name="Path 278" d="M1348.777,563.538a4.446,4.446,0,0,0,4.444,4.445h2.508a4.446,4.446,0,0,0,4.443-4.445h0a4.445,4.445,0,0,0-4.443-4.449h-2.508a4.445,4.445,0,0,0-4.444,4.449Z" transform="translate(-1319.895 -487.342)" fill="#367082"/>
                <path id="Path_279" data-name="Path 279" d="M1282.647,545.429c-.106-.524-.168-3.806-.168-4.37,0-3.591,2.317-6.5,5.181-6.5h57.733c2.858,0,5.18,2.909,5.18,6.5,0,.564-.062,3.846-.173,4.37Z" transform="translate(-1281.944 -473.3)" fill="#8dcfff"/>
                <path id="Path_280" data-name="Path 280" d="M1350.389,561.432c0,1.1-.641,1.993-1.436,1.993h-66.288c-.8,0-1.436-.893-1.436-1.993h0c0-1.1.641-1.989,1.436-1.989h66.288c.8,0,1.436.891,1.436,1.989Z" transform="translate(-1281.228 -487.544)" fill="#367082"/>
                <g id="Group_670" data-name="Group 670" transform="translate(33.448)">
                  <path id="Path_281" data-name="Path 281" d="M1391.936,430.065c-1.426.1-10.474.264-12.034.284-9.907.12-18.438-1.741-18.914-4.182a84.645,84.645,0,0,1-.256-30.7c.423-2.439,9.082-4.3,19.2-4.176,1.588.019,10.825.18,12.278.287A83.079,83.079,0,0,0,1391.936,430.065Z" transform="translate(-1359.454 -391.29)" fill="#8dcfff"/>
                  <path id="Path_282" data-name="Path 282" d="M1432.709,391.972c1.108.013,1.882.54,1.728,1.176a83,83,0,0,0-.311,36.137c.141.638-.626,1.164-1.711,1.177h0c-1.085.016-2.09-.494-2.227-1.133a83.105,83.105,0,0,1,.236-36.224c.149-.64,1.172-1.147,2.285-1.132Z" transform="translate(-1398.867 -391.68)" fill="#367082"/>
                  <path id="Path_283" data-name="Path 283" d="M1427.957,430.236a24.993,24.993,0,0,1-2.6.174,5.216,5.216,0,0,1-4.811-4.28,83.232,83.232,0,0,1,.14-30.229,5.318,5.318,0,0,1,4.93-4.279,25.435,25.435,0,0,1,2.644.176A83.013,83.013,0,0,0,1427.957,430.236Z" transform="translate(-1393.673 -391.48)" fill="#7dc2f5"/>
                </g>
              </g>
              <path id="Path_284" data-name="Path 284" d="M1381.306,290.638s-2.716,13.59-.905,18.422-12.375,1.208-12.375,1.208.6-11.174.906-13.59S1381.306,290.638,1381.306,290.638Z" transform="translate(-1293.08 -259.436)" fill="#ad6d43"/>
              <path id="Path_285" data-name="Path 285" d="M1369.449,296.678c.3-2.416,12.375-6.04,12.375-6.04s-8.779,12.736-11.771,12.986a5.477,5.477,0,0,1-1.122-.016C1369.108,300.737,1369.31,297.786,1369.449,296.678Z" transform="translate(-1293.598 -259.436)" fill="#8e5834"/>
              <path id="Path_286" data-name="Path 286" d="M1352.134,258.855s-.906,12.382.6,16.006,2.113,6.342,5.735,6.04,9.357-5.738,12.677-7.852,5.735-4.53,4.527-7.55-2.717-.6-2.717.3-9.357,2.416-16.6-2.114C1354.55,262.555,1351.832,260.667,1352.134,258.855Z" transform="translate(-1283.829 -241.243)" fill="#ad6d43"/>
              <path id="Path_287" data-name="Path 287" d="M1260.652,464.809l-51-13.627s-15.132-5.09-11.779,13.224c3.328,18.184,12.986,72.882,12.986,72.882l-18.11,11.274H1218.5l3.513-72.479s18.915,10.469,28.976,11.677,30.183,1.208,29.379-4.026S1260.652,464.809,1260.652,464.809Z" transform="translate(-1192.747 -350.963)" fill="#212957"/>
              <path id="Path_288" data-name="Path 288" d="M1280.276,651.772s.4,3.926.4,5.134-2.615,4.631-2.817,5.638l-.2,1.006h19.72s.4-2.013-2.817-4.631-4.225-4.429-4.628-7.751S1280.276,651.772,1280.276,651.772Z" transform="translate(-1241.353 -465.047)" fill="#c5e1f9"/>
              <path id="Path_289" data-name="Path 289" d="M1347.165,335.836s-11.47,1.812-12.979,6.342-.906,7.247-.906,9.362S1347.769,343.99,1347.165,335.836Z" transform="translate(-1273.123 -285.308)" fill="#dd000b"/>
              <path id="Path_290" data-name="Path 290" d="M1354.146,332.3l-12.375,1.51s-13.885,14.5-16.9,15.1,1.048,33.674.3,38.152c-.4,2.416,10.866,3.523,16.9,4.429s14.488,0,14.488,0a43.635,43.635,0,0,1-.905-19.63c2.113-9.966,11.469-17.516,9.357-24.462S1368.936,340.458,1354.146,332.3Z" transform="translate(-1267.729 -283.287)" fill="#ff3464"/>
              <path id="Path_291" data-name="Path 291" d="M1411.591,350.507s-3.32,9.362-2.716,15.4,2.415,20.838,2.415,20.838,3.622,17.214,10.564,15.1,6.339-21.744,1.51-34.126S1413.7,347.487,1411.591,350.507Z" transform="translate(-1316.421 -293.336)" fill="#e32d59"/>
              <path id="Path_292" data-name="Path 292" d="M1394.447,436.608s-.3,3.473-.3,4.228-3.32,1.661-6.791,1.661-29.127-14.8-31.542-15.855.453-5.587.453-5.587,15.545,2.869,21.732,5.587S1391.429,432.682,1394.447,436.608Z" transform="translate(-1285.535 -334.09)" fill="#ad6d43"/>
              <path id="Path_293" data-name="Path 293" d="M1306.022,456.4h-14.488l-47.086-10.067s-12.476-4.026-8.049,8.053,20.122,78.519,20.122,78.519l9.256-.806s-1.61-43.89-6.037-51.541-4.829-10.066-4.829-10.066,29.379,15.7,41.452,14.9S1318.5,475.323,1306.022,456.4Z" transform="translate(-1217.19 -348.19)" fill="#3b47bc"/>
              <path id="Path_294" data-name="Path 294" d="M1317.681,471.542s10.061,12.886,2.817,16.912-58.355-17.717-58.355-17.717,17.305,44.7,15.293,74.09" transform="translate(-1232.471 -362.529)" fill="none" stroke="#8dcfff" stroke-miterlimit="10" stroke-width="0.5"/>
            </g>
            <g id="Group_673" data-name="Group 673" transform="translate(23.774 47.282)">
              <path id="Path_295" data-name="Path 295" d="M1280.211,339.9l3.151,3.7-2.514,2.078-.325-.9Z" transform="translate(-1266.587 -334.918)" fill="#c5e1f9"/>
              <path id="Path_296" data-name="Path 296" d="M1289.234,334.96l-1.941-2.444s-10.633-.423-14.779.935a32.147,32.147,0,0,0-8.546,4.977s.55-3.424-.312-4.883a12.376,12.376,0,0,0-4.732-3.6,60.729,60.729,0,0,0-5.938-1.7l-2.225,1.4,10.261,11.887,6.293,1.159Z" transform="translate(-1249.729 -328.245)" fill="#eaf4fe"/>
              <path id="Path_297" data-name="Path 297" d="M1309.334,343.522s-12.413-.859-16.342.148c-3.727.954-6.9,1.851-8.2,4.71l13.063,22.659a36.98,36.98,0,0,1,10.873-1.289c5,.377,13.093.953,13.093.953Z" transform="translate(-1269.211 -336.794)" fill="#0561fc"/>
              <path id="Path_298" data-name="Path 298" d="M1260.973,342.024s.993-1.559-.885-3.727-5.423-6.7-11.738-6.834c-.137,0,9.4,27.187,9.4,27.187l14.008,3.239,1.648-.035Z" transform="translate(-1248.349 -330.087)" fill="#0561fc"/>
              <path id="Path_299" data-name="Path 299" d="M1280.834,355.34l-2.959.352,12.411,21,2.675.123.151-.684Z" transform="translate(-1265.25 -343.754)" fill="#0450cf"/>
              <path id="Path_300" data-name="Path 300" d="M1316.148,407.73l-.167-2.235a23.392,23.392,0,0,1-4.921-3.5c-1.716-1.594-2.728-3.024-3.076-2.826-.226.129-.164.941.985,3.793" transform="translate(-1282.425 -368.832)" fill="#8e5834"/>
              <path id="Path_301" data-name="Path 301" d="M1318.883,392.467,1315.2,390.9l-2.236-2.331s-2.59-3.241-4.27-4.179-2.415-1.378-2.95-1.176-1.181.614-.871,1.045a21.82,21.82,0,0,1,2.864,2.822c1.189,1.618,1.545,2.37,2.645,3.136a14.9,14.9,0,0,1,2.5,2.655s-.333.684-.761.835-4.15-2.263-4.727-2.594-4.433-4.023-4.433-4.023l-1.82-1.9s-1.158-.5-1.541.022.04.638.918,1.878a15.948,15.948,0,0,1,1.385,2.367l.779.866,2.958,3.408,4.883,2.757s.188,1.226.183,1.439.1.533.624.65a19.938,19.938,0,0,1,4.586,1.688,20.243,20.243,0,0,0,2.732,1.491,10.739,10.739,0,0,1,1.136,1.65c.258.377,5.735,2.114,5.735,2.114l1.376-1.9.641-2.75-2.285-2.544-2.222-5.625Z" transform="translate(-1277.6 -359.685)" fill="#ad6d43"/>
            </g>
          </g>
        </g>
      </g>
    </g>
    <g id="Group_18070" data-name="Group 18070" transform="translate(1022 1456.43)">
      <rect id="Rectangle_618" data-name="Rectangle 618" width="47.616" height="9.523" transform="translate(60.472 38.823)" fill="#c94161"/>
      <rect id="Rectangle_619" data-name="Rectangle 619" width="47.616" height="9.523" transform="translate(60.472 0.73)" fill="#c94161"/>
      <rect id="Rectangle_620" data-name="Rectangle 620" width="47.616" height="9.523" transform="translate(60.472 19.776)" fill="#eb6a89"/>
      <rect id="Rectangle_621" data-name="Rectangle 621" width="9.524" height="47.616" transform="translate(60.472 0.73)" fill="#ff3464"/>
      <rect id="Rectangle_622" data-name="Rectangle 622" width="9.524" height="47.616" transform="translate(116.512 0.001)" fill="#ff6671"/>
      <rect id="Rectangle_623" data-name="Rectangle 623" width="9.522" height="47.616" transform="translate(154.606 0.001)" fill="#ff6671"/>
      <path id="Path_13018" data-name="Path 13018" d="M116.512,0l38.094,47.616h9.522L126.036,0Z" fill="#ff82a0"/>
      <path id="Path_13019" data-name="Path 13019" d="M116.512,0l9.524,11.9V0Z"/>
      <path id="Path_13020" data-name="Path 13020" d="M154.607,47.617h9.522l-9.522-11.9Z"/>
      <rect id="Rectangle_624" data-name="Rectangle 624" width="47.616" height="9.523" transform="translate(0 19.435)" fill="#eb6a89"/>
    </g>
  </g>
</svg>
