<svg xmlns="http://www.w3.org/2000/svg" xmlns:xlink="http://www.w3.org/1999/xlink" width="359.134" height="289.939" viewBox="0 0 359.134 289.939">
  <defs>
    <clipPath id="clip-path">
      <rect id="Rectangle_648" data-name="Rectangle 648" width="145.762" height="31.055" fill="none"/>
    </clipPath>
  </defs>
  <g id="Group_18099" data-name="Group 18099" transform="translate(-794.627 -873.687)">
    <g id="Group_18068" data-name="Group 18068" transform="translate(442.25)">
      <g id="Group_770" data-name="Group 770" transform="translate(392.942 873.687)">
        <g id="Group_769" data-name="Group 769" transform="translate(0 0)">
          <g id="Group_764" data-name="Group 764">
            <path id="Path_539" data-name="Path 539" d="M1764.416,1404.491l6.836,2.489,4.405-12.1-6.836-2.49a1.393,1.393,0,0,0-1.783.85l-3.442,9.451A1.4,1.4,0,0,0,1764.416,1404.491Z" transform="translate(-1763.51 -1392.309)" fill="#ff876c"/>
            <path id="Path_540" data-name="Path 540" d="M1765.434,1404.207l6.708,2.443,1.872-5.141-6.708-2.443a.687.687,0,0,0-.878.422l-1.4,3.831A.688.688,0,0,0,1765.434,1404.207Z" transform="translate(-1763.799 -1393.626)" fill="#ffa38f"/>
            <path id="Path_541" data-name="Path 541" d="M1775.356,1397.709l1.028-2.826-6.836-2.49a1.393,1.393,0,0,0-1.783.85l-.548,1.5Z" transform="translate(-1764.236 -1392.309)" fill="#e36e54"/>
          </g>
          <path id="Path_542" data-name="Path 542" d="M1801.836,1420.54l157.922,57.4a3.5,3.5,0,0,0-1.718-3.836l-155.171-56.393Z" transform="translate(-1771.022 -1397.288)" fill="#0450cf"/>
          <path id="Path_543" data-name="Path 543" d="M1805.575,1409.323l-2.455,6.741,155.171,56.392h0c.01,0,.027,0,.036,0-.009,0-.025-.013-.032-.015a3.634,3.634,0,0,0,2.444-6.714c.01,0,.026.005.036,0-.009,0-.021-.016-.031-.019h0Z" transform="translate(-1771.274 -1395.644)" fill="#0561fc"/>
          <path id="Path_544" data-name="Path 544" d="M1961.343,1465.025a3.5,3.5,0,0,0,3.781-1.83L1807.2,1405.8l-1.032,2.831Z" transform="translate(-1771.872 -1394.954)" fill="#0450cf"/>
          <path id="Path_545" data-name="Path 545" d="M2002.361,1477.178a3.5,3.5,0,0,1-3.785,1.838h0c.01,0,.022.016.031.019-.01,0-.027-.006-.036,0a3.634,3.634,0,0,1-2.444,6.714c.007,0,.023.011.032.015-.009,0-.027,0-.036,0h0a3.5,3.5,0,0,1,1.715,3.844l27.729,3.058Z" transform="translate(-1809.105 -1408.945)" fill="#e5e8ec"/>
          <path id="Path_546" data-name="Path 546" d="M2002.958,1477.178a3.5,3.5,0,0,1-3.785,1.838h0c.01,0,.022.016.031.019-.01,0-.027-.006-.036,0,1.5.775,27,13.628,27,13.628Z" transform="translate(-1809.702 -1408.945)" fill="#cdd5d7"/>
          <g id="Group_765" data-name="Group 765" transform="translate(7.465 2.406)">
            <rect id="Rectangle_538" data-name="Rectangle 538" width="13.066" height="24.872" transform="matrix(0.342, -0.94, 0.94, 0.342, 0, 12.277)" fill="#f0ca67"/>
          </g>
          <g id="Group_766" data-name="Group 766" transform="translate(8.952 8.103)">
            <rect id="Rectangle_539" data-name="Rectangle 539" width="2.669" height="24.87" transform="matrix(0.342, -0.94, 0.94, 0.342, 0, 2.508)" fill="#f4da80"/>
          </g>
          <path id="Path_547" data-name="Path 547" d="M2023.721,1490.631a13.566,13.566,0,0,0-.779,1.71,13.133,13.133,0,0,0-.547,2.037l8.321.917Z" transform="translate(-1814.254 -1411.582)" fill="#0561fc"/>
          <g id="Group_767" data-name="Group 767" transform="translate(25.142 9.14)">
            <rect id="Rectangle_540" data-name="Rectangle 540" width="0.841" height="3.582" transform="translate(0 11.615) rotate(-69.98)" fill="#f4da80"/>
            <rect id="Rectangle_541" data-name="Rectangle 541" width="0.842" height="3.582" transform="translate(0.657 9.813) rotate(-69.979)" fill="#f4da80"/>
            <rect id="Rectangle_542" data-name="Rectangle 542" width="0.841" height="3.582" transform="translate(1.315 8.005) rotate(-69.97)" fill="#f0ca67"/>
            <rect id="Rectangle_543" data-name="Rectangle 543" width="0.842" height="3.581" transform="matrix(0.342, -0.94, 0.94, 0.342, 1.971, 6.203)" fill="#f0ca67"/>
            <rect id="Rectangle_544" data-name="Rectangle 544" width="0.837" height="3.582" transform="translate(2.629 4.396) rotate(-69.987)" fill="#f4da80"/>
            <rect id="Rectangle_545" data-name="Rectangle 545" width="0.841" height="3.582" transform="translate(3.286 2.593) rotate(-69.985)" fill="#f4da80"/>
            <rect id="Rectangle_546" data-name="Rectangle 546" width="0.837" height="3.582" transform="matrix(0.342, -0.94, 0.94, 0.342, 3.944, 0.786)" fill="#f4da80"/>
          </g>
          <g id="Group_768" data-name="Group 768" transform="translate(10.816 3.922)">
            <rect id="Rectangle_547" data-name="Rectangle 547" width="0.841" height="3.581" transform="translate(0 11.616) rotate(-69.98)" fill="#f4da80"/>
            <rect id="Rectangle_548" data-name="Rectangle 548" width="0.842" height="3.581" transform="translate(0.657 9.813) rotate(-69.987)" fill="#f4da80"/>
            <rect id="Rectangle_549" data-name="Rectangle 549" width="0.84" height="3.582" transform="matrix(0.342, -0.94, 0.94, 0.342, 1.314, 8.006)" fill="#f0ca67"/>
            <path id="Path_548" data-name="Path 548" d="M1779.7,1403.921l3.364,1.225-.287.792-3.366-1.226Z" transform="translate(-1777.443 -1398.508)" fill="#f0ca67"/>
            <rect id="Rectangle_550" data-name="Rectangle 550" width="0.837" height="3.582" transform="matrix(0.342, -0.94, 0.94, 0.342, 2.628, 4.397)" fill="#f4da80"/>
            <rect id="Rectangle_551" data-name="Rectangle 551" width="0.841" height="3.582" transform="matrix(0.342, -0.94, 0.94, 0.342, 3.286, 2.593)" fill="#f4da80"/>
            <rect id="Rectangle_552" data-name="Rectangle 552" width="0.837" height="3.582" transform="translate(3.943 0.787) rotate(-69.987)" fill="#f4da80"/>
          </g>
        </g>
        <path id="Path_549" data-name="Path 549" d="M1925.614,1457.286s-11.888-3.963-.4-23.5c4.561-7.759-2.424-29.51-15.125-20.792s-10.246-.118-17.426,4.748-9.764,10.938-7.8,16.836,3.038,17.541-1.384,20.483-25.344,18.818-8.265,32.263S1938.631,1481.97,1925.614,1457.286Z" transform="translate(-1784.109 -1395.967)" fill="#212957"/>
        <path id="Path_550" data-name="Path 550" d="M1910.306,1441.79l1.741,26.908,13.781-.539-4.838-18.065Z" transform="translate(-1792.284 -1402.008)" fill="#ad6d43"/>
        <path id="Path_551" data-name="Path 551" d="M1922.517,1455.88c-.314-.128-.65-.281-1.011-.465a49.783,49.783,0,0,1-10.555-7.243l-.63-8.141,10.676,8.889Z" transform="translate(-1792.286 -1401.663)" fill="#8e5834"/>
        <path id="Path_552" data-name="Path 552" d="M1923.365,1424.579s3.673,8.631,2.9,14.531.8,9.855-5.46,8.9-13.929-3.542-16.232-6.071-1.449-7.266,2.661-6.508,2.973-1.85,6.649-2.439S1923.85,1429.776,1923.365,1424.579Z" transform="translate(-1790.914 -1398.635)" fill="#ad6d43"/>
        <path id="Path_553" data-name="Path 553" d="M1923.847,1465.539s-8.738,1.988-15.663-.189c-6.6-2.076-17.739-6.982-17.739-6.982s-5.85.377-4.718,8.681,16.607,30.571,20,33.59-3.4,15.1-3.4,15.1,37.364,3.775,38.5,4.907-5.418-24.163-5.284-25.287C1936.113,1490.638,1930.263,1465.539,1923.847,1465.539Z" transform="translate(-1787.437 -1405.258)" fill="#fd2227"/>
        <path id="Path_554" data-name="Path 554" d="M1894.917,1460.175s-5.425-4.859-9.954-4.859c-1.51,0-4.907,5.473-5.473,12.455-.527,6.494-3.586,30.383-3.586,37.176s11.134,8.067,11.653,5.9c.589-2.462,2.312-30.429,2.312-30.429Z" transform="translate(-1785.541 -1404.66)" fill="#dd000b"/>
        <path id="Path_555" data-name="Path 555" d="M1929.42,1467.871s9.152,3.774,12.926,20.287c.532,2.327,8.776,7.359,11.983,10.474,4.022,3.9,12.644,6.794,12.644,6.794s-11.889-10.568-11.512-17.362S1934.138,1464.285,1929.42,1467.871Z" transform="translate(-1796.03 -1407.024)" fill="#dd000b"/>
        <path id="Path_556" data-name="Path 556" d="M1965.509,1480.911s5.1,5.679,8.776,10.547c2.037,2.695,3.114,7.573,3.68,10.547.577,3.032-1.415,7.3-5.378,7.572-5.09.348-9.625-7.3-10.38-11.268s-3.328-18.427-4.152-19.831C1957.867,1478.156,1965.509,1480.911,1965.509,1480.911Z" transform="translate(-1801.642 -1409.194)" fill="#ad6d43"/>
        <path id="Path_557" data-name="Path 557" d="M1956.216,1469.225c-.755-1.133-7.549-4.814-7.549-4.814l1.888-6.513,14.719,2.549s-.044,1.424-.047,2.641c0,.383-2.021-.24-2.45.244C1960.266,1466.16,1956.7,1469.949,1956.216,1469.225Z" transform="translate(-1799.803 -1405.166)" fill="#ad6d43"/>
        <path id="Path_558" data-name="Path 558" d="M1877.558,1518.618s-1.982,14.72-1.226,20.759,4.529,23.4,5.284,25.665,1.887,6.794,1.887,6.794,5.661-8.3,5.284-9.436a37.863,37.863,0,0,0-3.4-6.794c-1.132-1.51-1.51-6.039-1.132-12.078s6.463-17.409,1.934-23.069S1877.558,1518.618,1877.558,1518.618Z" transform="translate(-1785.591 -1416.82)" fill="#ad6d43"/>
        <path id="Path_559" data-name="Path 559" d="M1928.948,1561.427s-.378-4.153,3.4,12.454c3.522,15.5,2.264,29.817,2.642,31.327s-2.365,12.109-3.208,17.172c-1.416,8.492-1.7,3.963-.189,19.815s-.377,33.213-.377,34.346,8.3,1.887,8.3,1.887,2.265-23.778,6.794-35.855,4.435-24.155,3.775-42.649c-.133-3.714,7.172-39.545,6.416-43.781-1.5-8.387-5.848-20.1-7.58-24.58-.45-1.164-.724-1.839-.724-1.839Z" transform="translate(-1795.936 -1419.244)" fill="#212957"/>
        <path id="Path_560" data-name="Path 560" d="M1895.373,1529.722h37.364l-19.248,31.7h-4.152l-26.986,43.969s-8.775,21.513-14.153,38.686c-5.449,17.4-6.039,43.781-6.039,43.781l-8.3,1.887s-5.832-45.107-3.019-56.614c4.152-16.984,17.927-29.407,17.927-31.7,0-6.794,7.926-36.421,12.455-44.724S1895.373,1529.722,1895.373,1529.722Z" transform="translate(-1780.477 -1419.244)" fill="#3b47bc"/>
        <path id="Path_561" data-name="Path 561" d="M1930.017,1718.641l-1.888,14.719,21.136.755s.094-6.6-2.925-6.983-7.266-8.869-7.266-8.869-.943-3.869-1.793-3.586C1930.233,1717.028,1930.017,1718.641,1930.017,1718.641Z" transform="translate(-1795.777 -1455.495)" fill="#212957"/>
        <path id="Path_562" data-name="Path 562" d="M1855.157,1736.165l-.378,6.039,4.152,5.662,17.739.377s-6.417-7.926-6.794-9.058-1.887-8.682-4.907-9.813-6.039.378-6.039,3.02S1855.912,1736.165,1855.157,1736.165Z" transform="translate(-1781.4 -1458.303)" fill="#212957"/>
        <path id="Path_563" data-name="Path 563" d="M1901.113,1535.825s-14.72,30.006-16.418,37.365-13.586,34.535-13.586,34.535-13.021,20.38-14.154,29.439-.566,50.386-.566,50.386" transform="translate(-1781.687 -1420.44)" fill="none" stroke="#7eb3ff" stroke-miterlimit="10" stroke-width="1.059"/>
        <path id="Path_564" data-name="Path 564" d="M1920.433,1535.121s-3.4,12.455-14.72,12.455" transform="translate(-1791.383 -1420.302)" fill="none" stroke="#7eb3ff" stroke-miterlimit="10" stroke-width="1.059"/>
      </g>
    </g>
    <g id="Group_939" data-name="Group 939" transform="translate(80.396 641.752)">
      <g id="Group_772" data-name="Group 772" transform="translate(12 9)">
        <path id="Path_570" data-name="Path 570" d="M726.359,341l-24.128,48.254v0H713.02l18.734-37.467-5.4-10.79Z" fill="#c809ca" fill-rule="evenodd"/>
        <path id="Path_571" data-name="Path 571" d="M720.964,351.79,739.7,389.257h10.789v0L726.359,341l-5.4,10.79Z" fill="#e32d59" fill-rule="evenodd"/>
        <path id="Path_572" data-name="Path 572" d="M730.046,369.954l4.826,9.652h10.79l-4.826-9.652Z" fill="#f69" fill-rule="evenodd"/>
        <path id="Path_573" data-name="Path 573" d="M734.872,379.606l-4.826-9.652h-7.374l-4.826,9.652Z" fill="#ff99e4" fill-rule="evenodd"/>
        <path id="Path_574" data-name="Path 574" d="M730.046,369.954l-3.687-7.373-3.687,7.373Z" fill-rule="evenodd"/>
      </g>
      <path id="Path_575" data-name="Path 575" d="M876.743,368.423V358.9H829.126v9.523Z" transform="translate(-51 9)" fill="#eb6a89" fill-rule="evenodd"/>
    </g>
    <g id="Group_18092" data-name="Group 18092" transform="translate(1008 1089.945)">
      <rect id="Rectangle_633" data-name="Rectangle 633" width="30.818" height="6.164" transform="translate(77.973 24.716)" fill="#c94161"/>
      <rect id="Rectangle_634" data-name="Rectangle 634" width="30.818" height="6.164" transform="translate(77.973 0.061)" fill="#c94161"/>
      <rect id="Rectangle_635" data-name="Rectangle 635" width="30.818" height="6.164" transform="translate(77.973 12.388)" fill="#eb6a89"/>
      <rect id="Rectangle_636" data-name="Rectangle 636" width="6.164" height="30.818" transform="translate(77.973 0.061)" fill="#ff3464"/>
      <rect id="Rectangle_637" data-name="Rectangle 637" width="6.164" height="30.819" transform="translate(114.943 0.236)" fill="#f78fdc"/>
      <rect id="Rectangle_638" data-name="Rectangle 638" width="1.541" height="24.655" transform="translate(121.107 0.236)" fill="#fff"/>
      <rect id="Rectangle_639" data-name="Rectangle 639" width="30.818" height="6.164" transform="translate(114.943 24.891)" fill="#e32d59"/>
      <rect id="Rectangle_640" data-name="Rectangle 640" width="24.654" height="1.54" transform="translate(121.107 23.35)" fill="#fff"/>
      <g id="Group_18074" data-name="Group 18074" transform="translate(0 0)">
        <g id="Group_18073" data-name="Group 18073" clip-path="url(#clip-path)">
          <path id="Path_13022" data-name="Path 13022" d="M79.916,0H73.75a9.242,9.242,0,1,0,0,18.485c4.113,0,8.211.013,12.334.013a3.079,3.079,0,0,1,0,6.158H79.916v6.163h6.167a9.242,9.242,0,0,0,0-18.484c-4.123,0-8.22-.013-12.334-.013a3.079,3.079,0,1,1,0-6.157h6.166Z" transform="translate(-22.756 -0.002)" fill="#d12a51" fill-rule="evenodd"/>
          <rect id="Rectangle_641" data-name="Rectangle 641" width="6.166" height="6.167" transform="translate(54.076 0.001)" fill="#eb6a89"/>
          <rect id="Rectangle_642" data-name="Rectangle 642" width="6.168" height="6.167" transform="translate(60.242 0.001)" fill="#ff6671"/>
          <rect id="Rectangle_643" data-name="Rectangle 643" width="6.167" height="6.167" transform="translate(66.411 0.001)" fill="#ffd9f4"/>
          <rect id="Rectangle_644" data-name="Rectangle 644" width="6.166" height="6.167" transform="translate(54.076 24.659)" fill="#eb6a89"/>
          <rect id="Rectangle_645" data-name="Rectangle 645" width="6.167" height="6.167" transform="translate(47.909 24.659)" fill="#ff6671"/>
          <rect id="Rectangle_646" data-name="Rectangle 646" width="6.166" height="6.167" transform="translate(41.743 24.659)" fill="#ffd9f4"/>
          <rect id="Rectangle_647" data-name="Rectangle 647" width="30.818" height="6.164" transform="translate(0 12.168)" fill="#eb6a89"/>
        </g>
      </g>
    </g>
  </g>
</svg>
