<svg xmlns="http://www.w3.org/2000/svg" xmlns:xlink="http://www.w3.org/1999/xlink" width="491.269" height="315.304" viewBox="0 0 491.269 315.304">
  <defs>
    <clipPath id="clip-path">
      <rect id="Rectangle_657" data-name="Rectangle 657" width="171.022" height="47.616" transform="translate(0 0)" fill="none"/>
    </clipPath>
    <clipPath id="clip-path-2">
      <rect id="Rectangle_648" data-name="Rectangle 648" width="225.21" height="47.982" transform="translate(0 0)" fill="none"/>
    </clipPath>
  </defs>
  <g id="Group_18095" data-name="Group 18095" transform="translate(-590.941 -2659.688)">
    <g id="Group_945" data-name="Group 945">
      <rect id="Rectangle_601" data-name="Rectangle 601" width="370" height="290" transform="translate(672 2661)" fill="rgba(255,255,255,0)"/>
      <g id="Group_938" data-name="Group 938" transform="translate(353.625 2388.195)">
        <path id="Path_343" data-name="Path 343" d="M1503.685,1346.776c-21-3.3-52.183-2.338-81.159-15.48-54.2-24.585-138.439-28.747-191.532,11.223s-40.453,73.068,48.357,76.122c65.2,2.242,96.718-13.71,132.446-8.316,66.523,10.043,120.355-5.1,131.667-28.2S1531.61,1351.17,1503.685,1346.776Z" transform="translate(-858.02 -884.482)" fill="#e9f6ff"/>
        <g id="Group_693" data-name="Group 693" transform="translate(318.375 322.914)">
          <g id="Group_690" data-name="Group 690" transform="translate(0 0)">
            <path id="Path_344" data-name="Path 344" d="M1265.645,1187.775s-15.875-14.262-3.628-36.9c6.787-12.548,3.226-46.83-18.745-36.191s-16.022-2.625-28.427,3.292-17.9,14.818-16.229,24.531.584,28.215-7.044,31.774-44.18,23.46-20.625,48.6S1280.161,1229.563,1265.645,1187.775Z" transform="translate(-1163.142 -1112.67)" fill="#212957"/>
            <path id="Path_345" data-name="Path 345" d="M1297.977,1226.357s13.75,44.008,13.007,49.812-5.165,23.666-10.511,20.725-12.886-19.625-15.171-32.93S1259.853,1207.06,1297.977,1226.357Z" transform="translate(-1204.384 -1164.441)" fill="#e32d59"/>
            <path id="Path_346" data-name="Path 346" d="M1263.945,1220.084c-1.794,0-22.874-2.244-22.874-2.244l-14.352,6.282s-7.177-.448-5.382,11.219,20.632,56.992,24.22,59.236,31.4,6.283,35.881,4.488,12.559-2.693,12.559-2.693,0-32.759.9-34.554,1.345-12.565-8.971-20.643C1278.814,1235.61,1263.945,1220.084,1263.945,1220.084Z" transform="translate(-1184.256 -1163.284)" fill="#ff6671"/>
            <path id="Path_347" data-name="Path 347" d="M1232.073,1234.272s30.051,40.388,30.5,46.222-4.934,22.887-10.764,21.091-16.6-16.6-21.529-29.169S1208.3,1219.014,1232.073,1234.272Z" transform="translate(-1183.781 -1168.417)" fill="#d12a51"/>
            <path id="Path_348" data-name="Path 348" d="M1251.865,1171.932l2.691,29.169,18.838,2.244-4.485-18.4Z" transform="translate(-1195.493 -1139.136)" fill="#c67844"/>
            <path id="Path_349" data-name="Path 349" d="M1271.408,1193.357c-.5-.2-1.034-.436-1.609-.724a78.988,78.988,0,0,1-16.824-11.335l-.042-.485-1.068-12.413,17.039,13.943Z" transform="translate(-1195.493 -1137.391)" fill="#9d5b2e"/>
            <path id="Path_350" data-name="Path 350" d="M1284.01,1145.8s1.346,14.809-2.691,23.335-3.588,15.258-12.559,10.77-19.286-12.117-21.529-17.053,1.346-11.668,7.176-8.527,5.382-1.346,11.213-.449S1282.217,1153.876,1284.01,1145.8Z" transform="translate(-1193.557 -1124.749)" fill="#c67844"/>
            <path id="Path_351" data-name="Path 351" d="M1295.609,1335.42s48.44-21.091,68.175-25.13,36.763-14.809,28.69,6.731-61.88,60.134-61.88,60.134S1277.669,1389.271,1295.609,1335.42Z" transform="translate(-1210.089 -1204.252)" fill="#281616"/>
            <path id="Path_352" data-name="Path 352" d="M1396.272,1325.9s-19.735,10.321-25.117,21.989" transform="translate(-1238.989 -1206.976)" fill="none" stroke="#3b47bc" stroke-miterlimit="10" stroke-width="1"/>
            <path id="Path_353" data-name="Path 353" d="M1267.339,1309.817s.383,4.41.383,5.369,4.216,2.109,8.623,2.109,36.984-18.79,40.051-20.132a69.393,69.393,0,0,1,11.881-3.451c1.725-.191,3.066-4.985,2.108-8.053-.634-2.029-1.268-3.808-2.235-4.39a1.6,1.6,0,0,0-1.789.172c-2.108,1.342-10.54,8.628-10.54,8.628s-19.738,3.642-27.594,7.094S1271.172,1304.833,1267.339,1309.817Z" transform="translate(-1201.135 -1188.28)" fill="#c67844"/>
            <path id="Path_354" data-name="Path 354" d="M1373.14,1282.706l-10.092-1.322,2.235,4.39-1.341,6.711,5.557.959s.767-.959-.191-1.342-2.3-.959-2.3-.959,2.682-.384,3.832-.576,1.342-.575,1.342-1.15-1.15-.959-1.15-.959,2.108-.767,2.3-1.343.575-1.342.192-1.917S1373.715,1283.09,1373.14,1282.706Z" transform="translate(-1236.033 -1186.596)" fill="#ec9568"/>
            <path id="Path_355" data-name="Path 355" d="M1403.572,1394.329s11.662,1.795,14.352.9,16.147-1.346,21.08,1.8,8.522,10.77-6.728,13.911-35.433.449-38.124-1.346S1399.984,1392.534,1403.572,1394.329Z" transform="translate(-1247.186 -1237.133)" fill="#c5e1f9"/>
            <path id="Path_356" data-name="Path 356" d="M1351.447,1361.415s-56.963-41.285-67.727-46.221-29.153-14.361-33.639-4.488-5.382,23.335-3.14,35.452,23.8,26.964,39.47,28.271c5.382.448,1.346-20.643,1.346-20.643l53.822,21.99Z" transform="translate(-1193.266 -1205.116)" fill="#3b47bc"/>
            <path id="Path_357" data-name="Path 357" d="M1347.175,1387.052s-78.939-29.169-82.976-33.208-.449,15.707.9,20.643" transform="translate(-1199.311 -1222.227)" fill="none" stroke="#7e89fd" stroke-miterlimit="10" stroke-width="1"/>
            <path id="Path_358" data-name="Path 358" d="M1321.5,1394.14s8.971-8.078,14.8-8.975,13.455-3.591,15.25,2.692-6.728,17.5-18.838,20.194-15.6,5.462-21.977,3.141c-4.934-1.8-6.279-8.078-5.383-11.219S1316.12,1395.935,1321.5,1394.14Z" transform="translate(-1214.902 -1233.354)" fill="#c5e1f9"/>
          </g>
          <g id="Group_692" data-name="Group 692" transform="translate(94.445 83.18)">
            <path id="Path_359" data-name="Path 359" d="M1433.5,1277.8l-24.293,14.093,11.063,17.174,1.483.742,13.287-30.183Z" transform="translate(-1347.31 -1270.954)" fill="#c5e1f9"/>
            <path id="Path_360" data-name="Path 360" d="M1449.074,1278.429l-3.764,1.312-11.633,25.562-.684,5.42s1.654-.114,1.882-.4S1449.074,1278.429,1449.074,1278.429Z" transform="translate(-1355.982 -1271.183)" fill="#003e99"/>
            <path id="Path_361" data-name="Path 361" d="M1374.025,1270.8l3.821.114s13.914,10.9,17.906,16.376,11.89,15.063,12.489,18.6c.149.879.252,1.163.285,1.4a13.965,13.965,0,0,0,0-1.569s-.057-5.991,1.311-9.414,10.835-21.054,10.835-21.054,3.878,1.484,4.619,1.6-13,30.354-13,30.354a3.11,3.11,0,0,1-3.022,1.055c-1.825-.456-2.766,0-4.106-1.8a29.715,29.715,0,0,1-1.426-2.91Z" transform="translate(-1334.481 -1268.399)" fill="#eaf4fe"/>
            <path id="Path_362" data-name="Path 362" d="M1355.533,1267.081l.912-.057,33.874,36.4a2.458,2.458,0,0,1,.171,1.141,2.1,2.1,0,0,0,2.024,1.854c1.386.122,3.424.446,4.59-.028,1.138-.463,15.283-32.123,15.283-32.123l.627.285-14.142,30.7s.342.8-.114,1.084a16.343,16.343,0,0,1-3.251,1.369c-.57.057-34.5,14.264-34.5,14.264l-4.391-1.712-1.369-2.168-22.868-24.078Z" transform="translate(-1319.296 -1267.024)" fill="#0450cf"/>
            <path id="Path_363" data-name="Path 363" d="M1330.151,1292.333l24.008-25.219,33.931,36.8-33.018,15.576-26.46-25.562Z" transform="translate(-1317.922 -1267.057)" fill="#0561fc"/>
            <path id="Path_364" data-name="Path 364" d="M1312.345,1299.731s1.609-.731,5.072-2.244,5.853-3.855,6.877-3.758,6.633,3.318,6.633,3.318l8.193,3.952s1.561,1.367,1.17,2.2-.731.781-1.463.732-8.486-2.879-8.486-2.879l10.778,5.9,3.121,2a2.745,2.745,0,0,1,.732,1.22c.049.537-.2,1.22-.878,1.172a3.859,3.859,0,0,1-1.9-.342c-.732-.39-5.657-2.635-5.657-2.635s5.413,2.586,6.389,3.66.927,1.561.732,2.1-.927.634-.927.634l-4.194-2.2s1.219.684,1.121.976a1.083,1.083,0,0,1-1.024.732c-.536-.048-5.218-1.61-5.218-1.61l-4.536-1.073-5.9-.635-7.364-1.854s-1.316.341-1.463-.1S1310.443,1301.586,1312.345,1299.731Z" transform="translate(-1311.787 -1276.761)" fill="#c67844"/>
            <path id="Path_365" data-name="Path 365" d="M1370.525,1342.131l32.619-15.12a3.848,3.848,0,0,0,2.053,1.712c1.653.742,5.075.57,5.075.57l-35.356,14.55S1370.7,1343.443,1370.525,1342.131Z" transform="translate(-1333.205 -1288.897)" fill="#0561fc"/>
            <g id="Group_691" data-name="Group 691" transform="translate(36.123 39.058)">
              <path id="Path_366" data-name="Path 366" d="M1403.307,1338.772a2.727,2.727,0,0,1,0,2.225c-.513,1.312-.627,2.111-2,2.568s-1.483.513-2.167-.057-3.592-2.8-3.592-2.8l-2.281-3.081s-.684-1.426.228-1.769,1.711-.456,2.908.856a14.7,14.7,0,0,0,4.049,2.738C1401.123,1339.76,1403.307,1338.772,1403.307,1338.772Z" transform="translate(-1377.531 -1331.099)" fill="#9d5b2e"/>
              <path id="Path_367" data-name="Path 367" d="M1394.553,1340.676a2,2,0,0,1-.114,1.712,3.411,3.411,0,0,1-2.395,1.484c-.855-.057-6.33-2.91-6.33-2.91l-4.163-6.162-3.307-5.021s.342-1.084,1.026-1.2a1.81,1.81,0,0,1,1.939.514,57.532,57.532,0,0,1,3.592,5.021l3.764,3.024S1393.356,1340.219,1394.553,1340.676Z" transform="translate(-1372.142 -1328.496)" fill="#9d5b2e"/>
              <path id="Path_368" data-name="Path 368" d="M1369.627,1330.888s.285-1.541,1.2-1.37,2.453,1.712,4.106,3.481,2.51,2.8,2.51,2.8l2.908,2.054,6.5,4.85.57.742s.741,1.084-.285,1.369-1.71,1.427-3.364.684a75.594,75.594,0,0,1-7.071-4.793l-3.421-4.565-2.42-3.48Z" transform="translate(-1369 -1328.864)" fill="#9d5b2e"/>
              <path id="Path_369" data-name="Path 369" d="M1369.552,1334.285c-.741.029-.912,1.027-.912,1.027l5.474,8.045s6.387,4.565,7.015,4.907a1.685,1.685,0,0,0,2.281-1.027c.342-1.141-8.782-8.044-8.782-8.044S1371.036,1334.228,1369.552,1334.285Z" transform="translate(-1368.64 -1330.607)" fill="#9d5b2e"/>
            </g>
          </g>
        </g>
        <g id="Group_699" data-name="Group 699" transform="translate(504.909 302.805)">
          <g id="Group_695" data-name="Group 695">
            <g id="Group_694" data-name="Group 694" transform="translate(35.312)">
              <path id="Path_370" data-name="Path 370" d="M1594.561,1249.419c.342,9.251,7.343,31.825,11.589,44.757h65.882l11.783-32.422s24.941-38.856-18-64.634c-6.164-3.7-38.218-.987-38.218-.987s-23.743,1.59-55.23,48.845C1571.384,1246.459,1594.068,1236.1,1594.561,1249.419Z" transform="translate(-1569.049 -1122.644)" fill="#c818ca"/>
              <path id="Path_371" data-name="Path 371" d="M1660.015,1144.184c.493,2.467,4.759,9.936-13.808,27.136-13.314,12.335,29.095,13.815,43.889-4.934,0,0-22.684-2.961-15.287-44.405C1680.359,1090.882,1660.015,1144.184,1660.015,1144.184Z" transform="translate(-1595.053 -1092.403)" fill="#f7b68b"/>
              <path id="Path_372" data-name="Path 372" d="M1714.67,1257.851c-13.663-4.1-34.749-7.386-40.965-9.574-1.646.961-2.075.637-3.289,2.094,4.385,8,19.814,30.035,33.381,35.021,16.109,5.921,18.41,3.29,20.712-.987S1731.107,1262.784,1714.67,1257.851Z" transform="translate(-1604.81 -1142.006)" fill="#f7b68b"/>
              <path id="Path_373" data-name="Path 373" d="M1679.212,1145.568c-.946-5.991-.9-13.689.869-23.586,5.55-31.1-14.794,22.2-14.794,22.2.423,2.115,3.616,7.9-7.173,20.347C1666.873,1162.646,1674.436,1155.567,1679.212,1145.568Z" transform="translate(-1600.325 -1092.403)" fill="#ec9568"/>
              <path id="Path_374" data-name="Path 374" d="M1660.452,1103.868s-4.931,30.59-2.958,37.5,7.86,8.52,14.793-.987c13.314-18.256,12.822-32.564,8.876-35.031S1666.37,1093.508,1660.452,1103.868Z" transform="translate(-1599.929 -1087.612)" fill="#f7b68b"/>
              <path id="Path_375" data-name="Path 375" d="M1664.988,1101.718c-4.79.769-12.327,3.453-17.259-8.881s5.917-14.8,11.342-8.387,4.931,9.374,1.479,6.414,1.973-11.842,6.9-5.92,6.9,14.8,4.438,14.308,5.424-10.361,8.383-5.921,4.931,10.855,1.479,12.828-7.4-4.934-3.945-2.467,4.439,15.788,0,17.761-4.437-1.48-.493-5.426-1.479-12.089-3.451-4.194c-.169.677-1.479,5.18-1.479,5.18l-2.96,2.467s0-8.881,1.973-12.087C1675.846,1100.163,1675.71,1099.995,1664.988,1101.718Z" transform="translate(-1596.082 -1081.02)" fill="#212957"/>
              <path id="Path_376" data-name="Path 376" d="M1725.064,1287.313c-1.743,1.219-2.31,2.164-5.145,1.786-4.346-.58-17.938-8.343-24.382-13.237-10.206-7.753-21.4-22.532-21.945-22.523.973,1.874,15.708,28.145,31.364,33.9C1719.679,1292.65,1722.867,1290.916,1725.064,1287.313Z" transform="translate(-1605.969 -1143.852)" fill="#ec9568"/>
              <path id="Path_377" data-name="Path 377" d="M1577.327,1235.946a5.083,5.083,0,1,1-5.083-5.086A5.084,5.084,0,0,1,1577.327,1235.946Z" transform="translate(-1567.161 -1135.656)" fill="#f7f8fc"/>
            </g>
            <path id="Path_378" data-name="Path 378" d="M1548.443,1397.226a10.975,10.975,0,0,1-4.486,0c-3.14-.449-11.661-2.244-19.286-3.141s-7.625.449-7.625,3.141,2.242,11.667,10.765,13.014,22.874,0,22.874,0,7.177-.449,7.177-2.244S1556.067,1394.534,1548.443,1397.226Z" transform="translate(-1513.576 -1216.887)" fill="#281616"/>
            <path id="Path_379" data-name="Path 379" d="M1608.8,1331.029s-56.962-21.54-75.8-21.54-26.463,7.18-17.94,19.3,62.793,52.056,62.793,52.056h33.639S1633.015,1355.263,1608.8,1331.029Z" transform="translate(-1511.585 -1186.142)" fill="#281616"/>
            <path id="Path_380" data-name="Path 380" d="M1668.332,1366.553s7.625-20.194,2.243-34.105-16.147-24.233-28.257-18.848-79.388,49.812-79.388,49.812l6.728,14.809s52.015-9.412,60.1-17.5c.449-.449,0,17.5,12.11,20.194C1650.177,1382.76,1661.156,1379.118,1668.332,1366.553Z" transform="translate(-1530.307 -1187.112)" fill="#3b47bc"/>
            <path id="Path_381" data-name="Path 381" d="M1640.065,1409.305s-11.662-1.346-13.9-2.244c-2.667-1.068-7.625-7.629-17.044-7.18s-17.94.9-14.8,7.18,8.074,9.873,21.081,11.219,25.117,1.795,27.36.448S1648.138,1408.408,1640.065,1409.305Z" transform="translate(-1541.509 -1219.094)" fill="#281616"/>
            <line id="Line_205" data-name="Line 205" x2="23.772" y2="24.682" transform="translate(35.315 137.917)" fill="none" stroke="#3b47bc" stroke-miterlimit="10" stroke-width="1"/>
            <line id="Line_206" data-name="Line 206" x1="21.081" y2="12.116" transform="translate(95.865 164.184)" fill="none" stroke="#281616" stroke-miterlimit="10" stroke-width="1"/>
          </g>
          <g id="Group_698" data-name="Group 698" transform="translate(2.285 71.416)">
            <g id="Group_697" data-name="Group 697">
              <path id="Path_382" data-name="Path 382" d="M1527.949,1224.324l28.307,16.387-12.865,20.013-1.726.865-15.507-35.137Z" transform="translate(-1519.183 -1216.297)" fill="#c5e1f9"/>
              <path id="Path_383" data-name="Path 383" d="M1516.33,1225.068l4.385,1.524,13.576,29.757.8,6.312s-1.927-.131-2.192-.463S1516.33,1225.068,1516.33,1225.068Z" transform="translate(-1515.6 -1216.568)" fill="#003e99"/>
              <path id="Path_384" data-name="Path 384" d="M1580.193,1216.087l-4.45.137s-16.193,12.706-20.836,19.09-13.831,17.555-14.525,21.676c-.172,1.024-.292,1.355-.33,1.628a16.089,16.089,0,0,1,0-1.827s.06-6.977-1.537-10.963-12.641-24.508-12.641-24.508-4.514,1.732-5.378,1.865,15.175,35.337,15.175,35.337a3.621,3.621,0,0,0,3.521,1.226c2.125-.534,3.221,0,4.78-2.1a34.55,34.55,0,0,0,1.657-3.39Z" transform="translate(-1517.106 -1213.293)" fill="#eaf4fe"/>
              <path id="Path_385" data-name="Path 385" d="M1582.118,1211.755l-1.063-.066-39.41,42.432a2.865,2.865,0,0,0-.2,1.329c.134.465-.635,2.008-2.355,2.161-1.615.144-3.987.523-5.347-.029-1.326-.537-17.833-37.394-17.833-37.394l-.73.333,16.5,35.734s-.4.931.134,1.262a19.034,19.034,0,0,0,3.787,1.591c.664.066,40.2,16.575,40.2,16.575l5.112-2,1.591-2.527,26.605-28.067Z" transform="translate(-1515.181 -1211.69)" fill="#0450cf"/>
              <path id="Path_386" data-name="Path 386" d="M1625.864,1241.138l-27.987-29.344-39.476,42.9,38.47,18.1,30.788-29.8Z" transform="translate(-1530.94 -1211.728)" fill="#0561fc"/>
              <path id="Path_387" data-name="Path 387" d="M1658.9,1245.425a82.563,82.563,0,0,0-7.73-3.852c-4.438-1.934-7.5-4.932-8.816-4.806s-8.495,4.26-8.495,4.26l-10.494,5.074s-2,1.752-1.5,2.815.938,1,1.875.936,10.87-3.7,10.87-3.7l-13.8,7.578-4,2.568a3.512,3.512,0,0,0-.936,1.564c-.062.688.251,1.563,1.126,1.5a4.941,4.941,0,0,0,2.437-.44c.937-.5,7.246-3.383,7.246-3.383s-6.933,3.321-8.182,4.7-1.186,2-.935,2.69,1.188.812,1.188.812l5.372-2.819s-1.561.877-1.436,1.252a1.389,1.389,0,0,0,1.313.937c.688-.064,6.685-2.07,6.685-2.07l5.81-1.381,7.561-.819,9.433-2.385s2.825-1.115,3.012-1.678S1661.339,1247.8,1658.9,1245.425Z" transform="translate(-1551.895 -1220.833)" fill="#f7b68b"/>
              <path id="Path_388" data-name="Path 388" d="M1592.063,1299.181l-38-17.574a4.48,4.48,0,0,1-2.39,2c-1.925.866-5.91.67-5.91.67l41.192,16.906S1591.865,1300.709,1592.063,1299.181Z" transform="translate(-1526.331 -1237.184)" fill="#0561fc"/>
              <g id="Group_696" data-name="Group 696" transform="translate(36.836 45.494)">
                <path id="Path_389" data-name="Path 389" d="M1573.422,1295.284a3.176,3.176,0,0,0,0,2.592c.6,1.528.733,2.458,2.327,2.988s1.728.6,2.524-.069,4.181-3.26,4.181-3.26l2.653-3.591s.8-1.662-.268-2.06-1.993-.53-3.386,1a17.152,17.152,0,0,1-4.713,3.194C1575.966,1296.433,1573.422,1295.284,1573.422,1295.284Z" transform="translate(-1573.157 -1286.33)" fill="#f7b68b"/>
                <path id="Path_390" data-name="Path 390" d="M1579.65,1297.492a2.332,2.332,0,0,0,.135,1.994c.6.8,1.8,1.792,2.791,1.725s7.368-3.4,7.368-3.4l4.842-7.181,3.847-5.851s-.4-1.262-1.2-1.394a2.106,2.106,0,0,0-2.258.6,66.787,66.787,0,0,0-4.179,5.851l-4.38,3.526S1581.044,1296.96,1579.65,1297.492Z" transform="translate(-1575.462 -1283.293)" fill="#f7b68b"/>
                <path id="Path_391" data-name="Path 391" d="M1607.6,1286.066s-.334-1.794-1.4-1.594-2.854,2-4.778,4.058-2.92,3.259-2.92,3.259l-3.385,2.4-7.566,5.656-.663.864s-.862,1.264.333,1.595,1.994,1.659,3.919.794,8.23-5.589,8.23-5.589l3.98-5.319,2.815-4.056Z" transform="translate(-1578.057 -1283.717)" fill="#f7b68b"/>
                <path id="Path_392" data-name="Path 392" d="M1609.88,1290.022c.863.032,1.063,1.2,1.063,1.2l-6.366,9.375s-7.434,5.323-8.164,5.722a1.962,1.962,0,0,1-2.658-1.193c-.4-1.329,10.219-9.379,10.219-9.379S1608.153,1289.957,1609.88,1290.022Z" transform="translate(-1580.664 -1285.746)" fill="#f7b68b"/>
              </g>
            </g>
          </g>
        </g>
      </g>
    </g>
    <g id="Group_18080" data-name="Group 18080" transform="translate(590.941 2659.688)">
      <g id="Group_18079" data-name="Group 18079" clip-path="url(#clip-path)">
        <path id="Path_13036" data-name="Path 13036" d="M0,0H33.336a14.28,14.28,0,0,1,0,28.56H0ZM9.522,9.523v9.514H33.336a4.757,4.757,0,0,0,0-9.514Z" fill="#ff3464" fill-rule="evenodd"/>
        <path id="Path_13037" data-name="Path 13037" d="M0,19.054H33.336a14.28,14.28,0,0,1,0,28.56H0Zm9.522,9.524v9.513H33.336a4.757,4.757,0,0,0,0-9.513Z" fill="#ff6671" fill-rule="evenodd"/>
        <path id="Path_13038" data-name="Path 13038" d="M9.522,19.037H33.336a4.771,4.771,0,0,0,4.756-4.756h0a4.771,4.771,0,0,0-4.756-4.757H9.522Z" fill="#68004d" fill-rule="evenodd"/>
        <path id="Path_13039" data-name="Path 13039" d="M9.522,28.578H33.336a4.757,4.757,0,0,1,0,9.513H9.522Z" fill="#68004d" fill-rule="evenodd"/>
        <path id="Path_13040" data-name="Path 13040" d="M43.951,23.807A14.256,14.256,0,0,1,33.337,28.56H0v-9.5H33.337a14.256,14.256,0,0,1,10.614,4.752" fill="#e32d59" fill-rule="evenodd"/>
        <rect id="Rectangle_652" data-name="Rectangle 652" width="47.616" height="9.523" transform="translate(59.878 38.093)" fill="#c94161"/>
        <rect id="Rectangle_653" data-name="Rectangle 653" width="47.616" height="9.523" transform="translate(59.878 0)" fill="#c94161"/>
        <rect id="Rectangle_654" data-name="Rectangle 654" width="47.616" height="9.523" transform="translate(59.878 19.046)" fill="#eb6a89"/>
        <rect id="Rectangle_655" data-name="Rectangle 655" width="9.524" height="47.616" transform="translate(59.877 0)" fill="#ff3464"/>
        <rect id="Rectangle_656" data-name="Rectangle 656" width="47.616" height="9.523" transform="translate(123.406 18.705)" fill="#eb6a89"/>
      </g>
    </g>
    <g id="Group_18075" data-name="Group 18075" transform="translate(857 2927.01)">
      <rect id="Rectangle_633" data-name="Rectangle 633" width="47.616" height="9.523" transform="translate(120.472 38.188)" fill="#c94161"/>
      <rect id="Rectangle_634" data-name="Rectangle 634" width="47.616" height="9.523" transform="translate(120.472 0.095)" fill="#c94161"/>
      <rect id="Rectangle_635" data-name="Rectangle 635" width="47.616" height="9.523" transform="translate(120.472 19.141)" fill="#eb6a89"/>
      <rect id="Rectangle_636" data-name="Rectangle 636" width="9.524" height="47.616" transform="translate(120.472 0.095)" fill="#ff3464"/>
      <rect id="Rectangle_637" data-name="Rectangle 637" width="9.523" height="47.617" transform="translate(177.594 0.365)" fill="#f78fdc"/>
      <rect id="Rectangle_638" data-name="Rectangle 638" width="2.381" height="38.093" transform="translate(187.117 0.365)" fill="#fff"/>
      <rect id="Rectangle_639" data-name="Rectangle 639" width="47.615" height="9.524" transform="translate(177.594 38.458)" fill="#e32d59"/>
      <rect id="Rectangle_640" data-name="Rectangle 640" width="38.092" height="2.38" transform="translate(187.117 36.078)" fill="#fff"/>
      <g id="Group_18074" data-name="Group 18074">
        <g id="Group_18073" data-name="Group 18073" clip-path="url(#clip-path-2)">
          <path id="Path_13022" data-name="Path 13022" d="M88.315,0H78.788a14.28,14.28,0,1,0,0,28.56c6.355,0,12.686.02,19.056.02a4.757,4.757,0,0,1,0,9.514H88.315v9.522h9.529a14.279,14.279,0,0,0,0-28.559c-6.37,0-12.7-.02-19.056-.02a4.757,4.757,0,1,1,0-9.513h9.527Z" fill="#d12a51" fill-rule="evenodd"/>
          <rect id="Rectangle_641" data-name="Rectangle 641" width="9.527" height="9.529" transform="translate(83.551 0.001)" fill="#eb6a89"/>
          <rect id="Rectangle_642" data-name="Rectangle 642" width="9.53" height="9.529" transform="translate(93.078 0.001)" fill="#ff6671"/>
          <rect id="Rectangle_643" data-name="Rectangle 643" width="9.529" height="9.529" transform="translate(102.608 0.001)" fill="#ffd9f4"/>
          <rect id="Rectangle_644" data-name="Rectangle 644" width="9.527" height="9.528" transform="translate(83.551 38.099)" fill="#eb6a89"/>
          <rect id="Rectangle_645" data-name="Rectangle 645" width="9.529" height="9.528" transform="translate(74.022 38.099)" fill="#ff6671"/>
          <rect id="Rectangle_646" data-name="Rectangle 646" width="9.527" height="9.528" transform="translate(64.495 38.099)" fill="#ffd9f4"/>
          <rect id="Rectangle_647" data-name="Rectangle 647" width="47.616" height="9.523" transform="translate(0 18.8)" fill="#eb6a89"/>
        </g>
      </g>
    </g>
  </g>
</svg>
