<svg xmlns="http://www.w3.org/2000/svg" xmlns:xlink="http://www.w3.org/1999/xlink" width="446.136" height="290" viewBox="0 0 446.136 290">
  <defs>
    <clipPath id="clip-path">
      <path id="Path_682" data-name="Path 682" d="M1907.557,2145.68,1870.8,2006.344H2094.41l36.761,139.336Z" transform="translate(-1870.796 -2006.344)" fill="none"/>
    </clipPath>
    <clipPath id="clip-path-2">
      <rect id="Rectangle_572" data-name="Rectangle 572" width="55.922" height="33.868" fill="none"/>
    </clipPath>
    <clipPath id="clip-path-3">
      <rect id="Rectangle_632" data-name="Rectangle 632" width="110.136" height="47.627" transform="translate(0 0)" fill="none"/>
    </clipPath>
  </defs>
  <g id="Group_18096" data-name="Group 18096" transform="translate(-672 -2148)">
    <g id="Group_944" data-name="Group 944">
      <rect id="Rectangle_600" data-name="Rectangle 600" width="370" height="290" transform="translate(672 2148)" fill="rgba(255,255,255,0)"/>
      <g id="Group_901" data-name="Group 901" transform="translate(557.36 -769.001)">
        <g id="Group_863" data-name="Group 863" transform="translate(211.532 2929.001)">
          <g id="Group_849" data-name="Group 849" transform="translate(12.732 0)">
            <g id="Group_835" data-name="Group 835" transform="translate(38.146)">
              <rect id="Rectangle_569" data-name="Rectangle 569" width="215.812" height="139.329" transform="translate(0 16.77)" fill="#c4e0f8"/>
              <rect id="Rectangle_570" data-name="Rectangle 570" width="215.812" height="17.352" fill="#eaf4fe"/>
              <path id="Path_659" data-name="Path 659" d="M1944.9,1995.43a3.47,3.47,0,1,1-3.47-3.469A3.475,3.475,0,0,1,1944.9,1995.43Z" transform="translate(-1932.178 -1987.553)" fill="#074fde"/>
              <path id="Path_660" data-name="Path 660" d="M1961.7,1995.43a3.471,3.471,0,1,1-3.47-3.469A3.472,3.472,0,0,1,1961.7,1995.43Z" transform="translate(-1937.99 -1987.553)" fill="#69adea"/>
              <path id="Path_661" data-name="Path 661" d="M1978.5,1995.43a3.471,3.471,0,1,1-3.471-3.469A3.472,3.472,0,0,1,1978.5,1995.43Z" transform="translate(-1943.803 -1987.553)" fill="#abd3f7"/>
            </g>
            <g id="Group_836" data-name="Group 836" transform="translate(180.464 27.507)">
              <rect id="Rectangle_571" data-name="Rectangle 571" width="58.194" height="36.141" transform="translate(1.138 1.136)" fill="#99c6f6"/>
              <path id="Path_662" data-name="Path 662" d="M2204.914,2029.552v33.869h-55.922v-33.869h55.922m2.273-2.273h-60.469v38.414h60.469v-38.414Z" transform="translate(-2146.718 -2027.279)" fill="#fff"/>
            </g>
            <g id="Group_840" data-name="Group 840" transform="translate(0 13.815)">
              <g id="Group_839" data-name="Group 839" clip-path="url(#clip-path)">
                <g id="Group_838" data-name="Group 838" transform="translate(49.412 13.488)">
                  <path id="Path_663" data-name="Path 663" d="M2085.023,2109.464c4.438,0,8.036-4.071,8.036-9.091v-37.234a10.612,10.612,0,0,0-2.8-2.87,14.467,14.467,0,0,0-16.13,0c-5.6,3.692-8.137,16.176-7.557,22.4q1.112,13.387,2.229,26.793Z" transform="translate(-1987.91 -2037.638)" fill="#f7b68b"/>
                  <path id="Path_664" data-name="Path 664" d="M2017.5,2312.064l-3.948,50.94s-13.741-27.3-15.218-46.421S2017.854,2311.338,2017.5,2312.064Z" transform="translate(-1964.305 -2123.682)" fill="#f7b68b"/>
                  <path id="Path_665" data-name="Path 665" d="M2153.683,2268.945l-25.014,40.66s37.2-17.872,35.276-34.5S2153.683,2268.945,2153.683,2268.945Z" transform="translate(-2009.422 -2109.555)" fill="#f7b68b"/>
                  <path id="Path_666" data-name="Path 666" d="M2011.643,2146.388s-9.668,8.073-16.724,56.742-2.565,46.817-2.565,46.817l1.277,11.09,17.967,1.848,10.261-41.891Z" transform="translate(-1961.775 -2068.282)" fill="#7eb2ff"/>
                  <path id="Path_667" data-name="Path 667" d="M2116.131,2679.888v4.85h-26.938l-.639-13.023,16.248-.537S2113.567,2679.2,2116.131,2679.888Z" transform="translate(-1995.544 -2249.839)" fill="#161711"/>
                  <path id="Path_668" data-name="Path 668" d="M2048.525,2324.631s-13.956,79.842-28.5,114.885c-12.89,31.05-27.921-9.34-27.921-9.34l23.524-133.969,38.771-2.939S2057.072,2294.25,2048.525,2324.631Z" transform="translate(-1962.177 -2119.097)" fill="#212957"/>
                  <path id="Path_669" data-name="Path 669" d="M2070.9,2291.417l-4.764,51.482,6.719,3.95s3.892,76.473,5.16,80.341c7.271,22.136,26.08,8.855,28.646,1.476s6.846-61.989,5.993-101.834l-.857-39.845Z" transform="translate(-1987.789 -2116.924)" fill="#212957"/>
                  <path id="Path_670" data-name="Path 670" d="M2085.367,2466.8s-3.117,13.62-2.667,39.372c.284,16.332,1.887,59.556,4.878,91.734.185,1.969,16.252.482,16.252.482s9.788-104.451,10.649-124.677C2114.736,2467.623,2098.194,2452.389,2085.367,2466.8Z" transform="translate(-1993.503 -2177.052)" fill="#212957"/>
                  <path id="Path_671" data-name="Path 671" d="M2021.773,2139.567l28.293-12.771,14.594,4.364,18.044-2.06,19.893,8.62s8.973,8.628.637,36.351-7.1,73.495-7.1,73.495l-72.207,4.58S2028.831,2154.967,2021.773,2139.567Z" transform="translate(-1972.44 -2061.504)" fill="#99c6f6"/>
                  <path id="Path_672" data-name="Path 672" d="M2125.725,2144.648s10.908-6.16,21.808,7.393c18.583,23.1,27.581,51.75,29.507,57.291s4.483,22.182-3.206,27.107l-7.7,4.93-16.036-9.855,2.566-4.926,1.282-3.082s-8.979-19.714-18.6-37.586S2125.725,2144.648,2125.725,2144.648Z" transform="translate(-2008.403 -2067.197)" fill="#7eb2ff"/>
                  <path id="Path_673" data-name="Path 673" d="M2092.8,2127.843l7.135,7.793,7.136-10.285-4.282-6.338Z" transform="translate(-1997.013 -2058.811)" fill="#7eb2ff"/>
                  <path id="Path_674" data-name="Path 674" d="M2067.006,2119.951l13.722,8.841-6.483,7.787-10.711-12.152Z" transform="translate(-1986.888 -2059.136)" fill="#7eb2ff"/>
                  <path id="Path_675" data-name="Path 675" d="M1991.537,2496.8s4.508,1.471,18.828,1.981c14.262.513-18.4,115.323-18.4,115.323l-20.261-7.448,14.595-115.58Z" transform="translate(-1955.117 -2187.532)" fill="#212957"/>
                  <path id="Path_676" data-name="Path 676" d="M1981.63,2673.475l-1.927,10.064h-33.358v-3.7s16.04-5.542,19.245-11.706S1981.63,2673.475,1981.63,2673.475Z" transform="translate(-1946.345 -2248.159)" fill="#161711"/>
                  <path id="Path_677" data-name="Path 677" d="M2082.943,2091.743c3.94,0,7.134-3.761,7.134-8.4v-34.4a9.649,9.649,0,0,0-2.489-2.651,12.427,12.427,0,0,0-14.319,0c-4.971,3.411-7.224,14.945-6.709,20.7q.987,12.368,1.979,24.755Z" transform="translate(-1987.91 -2032.867)" fill="#ec9568"/>
                  <g id="Group_837" data-name="Group 837" transform="translate(68.041)">
                    <path id="Path_678" data-name="Path 678" d="M2073.481,2033.617v-6.65H2059.12a8.75,8.75,0,0,0-8.743,8.751v6.646h14.359A8.746,8.746,0,0,0,2073.481,2033.617Z" transform="translate(-2050.377 -2026.967)" fill="#163f59"/>
                    <path id="Path_679" data-name="Path 679" d="M2089.179,2076.06a7.775,7.775,0,0,1-7.775,7.774h-17.651a7.775,7.775,0,0,1-7.774-7.774v-35.292a7.779,7.779,0,0,1,7.774-7.783H2081.4a7.779,7.779,0,0,1,7.775,7.783Z" transform="translate(-2052.315 -2029.049)" fill="#f7b68b"/>
                    <path id="Path_680" data-name="Path 680" d="M2078.31,2026.967a8.74,8.74,0,0,1,7.312,3.959h3a6.775,6.775,0,0,1,6.773,6.776v16.742h-4.764v-6.808a4.776,4.776,0,0,0-4.769-4.769H2071.47a8.739,8.739,0,0,1-8.746-8.745v-7.156Z" transform="translate(-2054.649 -2026.967)" fill="#163f59"/>
                    <path id="Path_681" data-name="Path 681" d="M2103.094,2073.435a4.142,4.142,0,0,1,4.153-4.14h.34a4.143,4.143,0,0,1,4.15,4.14v5.043a4.151,4.151,0,0,1-4.15,4.148h-.34a4.161,4.161,0,0,1-3.8-2.475" transform="translate(-2068.615 -2041.611)" fill="#f7b68b"/>
                  </g>
                </g>
              </g>
            </g>
            <g id="Group_848" data-name="Group 848" transform="translate(182.737 29.78)">
              <g id="Group_847" data-name="Group 847" clip-path="url(#clip-path-2)">
                <g id="Group_846" data-name="Group 846" transform="translate(11.771 -0.452)">
                  <path id="Path_683" data-name="Path 683" d="M2196.6,2093.762s24.836,57.524,25.02,58.3-4.016.511-4.016.511l-10.5-14.7s-3.676-8.4-4.2-11.814-12.865-14.7-13.652-17.591S2191.083,2089.561,2196.6,2093.762Z" transform="translate(-2175.427 -2051.859)" fill="#212957"/>
                  <path id="Path_684" data-name="Path 684" d="M2190.008,2093.668l-2.519,29.3-2.731,28.35-3.938-.288-.682-28.412s-2.667-20.83.069-25.037c1.75-4.026,1.575-5.6,1.575-5.6Z" transform="translate(-2171.921 -2051.483)" fill="#3b47bc"/>
                  <path id="Path_685" data-name="Path 685" d="M2198.578,2095.881l-2.451,7.7-.281-9.169,3.081-.282Z" transform="translate(-2177.758 -2052.228)" fill="#3b47bc"/>
                  <path id="Path_686" data-name="Path 686" d="M2233.829,2183.508l-.748,4.038h11.442a1.652,1.652,0,0,0-1.271-1.645c-1.346-.374-5.01-1.5-5.983-2.692S2233.829,2183.508,2233.829,2183.508Z" transform="translate(-2190.64 -2082.885)" fill="#c5e1f9"/>
                  <path id="Path_687" data-name="Path 687" d="M2184.088,2182.243s-.149,1.458-.149,1.907.972,1.72,1.046,2.094l.074.374h-7.328s-.149-.748,1.047-1.72a3.808,3.808,0,0,0,1.72-2.879C2180.648,2180.785,2184.088,2182.243,2184.088,2182.243Z" transform="translate(-2171.49 -2082.462)" fill="#c5e1f9"/>
                  <path id="Path_688" data-name="Path 688" d="M2197.029,2049.965c-.933-1.8-4.9-3.073-3.676-10.5.677-4.119-1.946-8.873-5.075-9.276-5.426-.7-9.1,1.75-9.8,2.975-2,3.5-5.961,5.028-4.569,7.552s2.861,7.744,1.092,9.458-8.475,14.361,1.468,16.018C2185.918,2067.765,2203.758,2062.922,2197.029,2049.965Z" transform="translate(-2169.212 -2030.063)" fill="#212957"/>
                  <g id="Group_841" data-name="Group 841" transform="translate(2.204 37.627)">
                    <path id="Path_689" data-name="Path 689" d="M2174.451,2088.7l-2.891,13.369s.762,2.273,1.473.856,4.886-10.885,4.886-10.885S2177.684,2084.913,2174.451,2088.7Z" transform="translate(-2171.56 -2087.594)" fill="#ec9568"/>
                  </g>
                  <path id="Path_690" data-name="Path 690" d="M2193.86,2061.278s-1.234,2.356,1.01,8.974,3.141,10.208,3.589,10.32,2.8.561,3.589-.337,1.458-1.683,1.346-2.243-4.328-13.064-5.16-14.134C2196.664,2061.84,2194.646,2060.942,2193.86,2061.278Z" transform="translate(-2176.954 -2040.838)" fill="#dd000b"/>
                  <g id="Group_844" data-name="Group 844" transform="translate(23.418 36.187)">
                    <path id="Path_691" data-name="Path 691" d="M2204.112,2090.015s4.825,8.1,5.772,9.083,2.053,3.564,2.073.09-4.11-11.186-4.94-13.181S2203.393,2087.262,2204.112,2090.015Z" transform="translate(-2203.995 -2085.392)" fill="#f7b68b"/>
                    <g id="Group_843" data-name="Group 843" transform="translate(2.916 10.47)">
                      <g id="Group_842" data-name="Group 842">
                        <path id="Path_692" data-name="Path 692" d="M2212.2,2102.655c-.036,3.649-1.712,5.187-2.241,6.626a26.794,26.794,0,0,1-1.319,2.868c1.427-.788,1.478-1.968,1.943-2.551s.234-.431.309.868c.043.739-1.153,2.019-1.818,2.944a3.088,3.088,0,0,0-.626,1.308,15.064,15.064,0,0,0,2.181-2.114,18.817,18.817,0,0,0,2.326-3.64,15.7,15.7,0,0,0,.191-4.955C2212.932,2102.043,2212.231,2100.027,2212.2,2102.655Z" transform="translate(-2208.453 -2101.4)" fill="#f7b68b"/>
                        <path id="Path_693" data-name="Path 693" d="M2213.856,2112.667a21.116,21.116,0,0,1-1.013,3.266c-.235.339-1.612,1.743-1.612,1.743a3.822,3.822,0,0,1,.686-1.636A32.231,32.231,0,0,0,2213.856,2112.667Z" transform="translate(-2209.414 -2105.298)" fill="#f7b68b"/>
                      </g>
                    </g>
                  </g>
                  <path id="Path_694" data-name="Path 694" d="M2172.687,2108.234a4.45,4.45,0,0,0-.092,3.009c.538,1.64.792,2.387.792,2.387a.638.638,0,0,1-.705-.125c-.253-.315-.19-.884-.485-.82s-.315,1.115-.282,2.126,0,2.156,0,2.156-.462.285-.621-.452c-.038-.178.062-.478.027-.662-.107-.578-.2-1.471-.2-1.471s-.138-.159-.2,1.463a3.277,3.277,0,0,1-.3,1.254s-.353-.063-.4-.284.055-3,.055-3-.065-.163-.178-.008-.843,2.765-.843,2.765-.564-.1-.4-.626.619-2.567.619-2.567-.093-.358-.313-.095a9.031,9.031,0,0,0-.633,1.619c-.12.311-.354-.041-.336-.53s.571-1.475.669-2.179a7.287,7.287,0,0,1,1-2.4C2170.2,2109.386,2172.459,2106.6,2172.687,2108.234Z" transform="translate(-2168.19 -2056.932)" fill="#ec9568"/>
                  <path id="Path_695" data-name="Path 695" d="M2181.956,2061.226s1.234-.336.449,5.609-1.795,11.665-2.131,12.675-.674,2.019-2.58,1.571-2.692-.449-2.692-1.346,1.009-8.413,2.243-11.666S2179.264,2060.1,2181.956,2061.226Z" transform="translate(-2170.547 -2040.786)" fill="#dd000b"/>
                  <path id="Path_696" data-name="Path 696" d="M2186.313,2060.908l3.958.224s4.284,2.691,4.416,6.892c.063,2,.626,2.668.131,4.463s-1.767,6.287-.466,8.948c2.041,4.179-12.4,1.685-12.4,1.685s-.217-6.06-.094-7.854S2180.128,2059.337,2186.313,2060.908Z" transform="translate(-2172.861 -2040.692)" fill="#fd2227"/>
                  <g id="Group_845" data-name="Group 845" transform="translate(10.292 7.379)">
                    <path id="Path_697" data-name="Path 697" d="M2186.877,2054.9a1.831,1.831,0,0,1-.038,2.045c-.73,1.073-2.412,1.837-.073,2.832a4.554,4.554,0,0,0,5.083-1.173s-2.029-.882-1.576-2.321,2.651-2.759.6-2.306S2186.535,2053.864,2186.877,2054.9Z" transform="translate(-2184.495 -2045.685)" fill="#c67844"/>
                    <path id="Path_698" data-name="Path 698" d="M2189.579,2057.8a3.052,3.052,0,0,0,1.362-.482,1.336,1.336,0,0,1-.087-1.028c.454-1.439,2.651-2.759.6-2.306s-4.339-.116-4,.923a1.831,1.831,0,0,1-.038,2.045c-.053.078-.111.154-.173.229C2188.008,2057.9,2188.365,2057.892,2189.579,2057.8Z" transform="translate(-2185.076 -2045.685)" fill="#a25b2c"/>
                    <path id="Path_699" data-name="Path 699" d="M2184.2,2041.345a13.671,13.671,0,0,0,.652,7.659c1.711,3.7,2.651,2.734,4.413,2.281s2.831-2.885,2.966-5.485c.129-2.478.731-3.4-1.661-2.176C2188.286,2044.792,2185.666,2045.264,2184.2,2041.345Z" transform="translate(-2183.927 -2041.345)" fill="#c67844"/>
                  </g>
                </g>
              </g>
            </g>
          </g>
          <g id="Group_857" data-name="Group 857" transform="translate(0 94.244)">
            <g id="Group_855" data-name="Group 855" transform="translate(17.83 64.328)">
              <g id="Group_850" data-name="Group 850" transform="translate(0 11.542)">
                <path id="Path_700" data-name="Path 700" d="M1887.675,2299.391a8.27,8.27,0,0,1-5.472-1.979c-2.749-2.391-3.938-6.644-3.537-12.635.268-4.045,1.86-8.14,3.546-12.478,2.84-7.3,6.054-15.564,4.373-26.5l3.124-.481c1.808,11.773-1.718,20.84-4.548,28.125-1.665,4.281-3.105,7.981-3.343,11.541-.323,4.86.515,8.324,2.432,10.015a5.235,5.235,0,0,0,4.177,1.175l.634,3.1A7.364,7.364,0,0,1,1887.675,2299.391Z" transform="translate(-1878.59 -2245.32)" fill="#367081"/>
              </g>
              <g id="Group_853" data-name="Group 853" transform="translate(7.681 76.726)">
                <g id="Group_851" data-name="Group 851" transform="translate(2.646 13.963)">
                  <path id="Path_701" data-name="Path 701" d="M1917.369,2366.332l3.078,4.694-25.852,8.281s-1.728-1.651,4.617-4.968C1906.6,2370.474,1917.369,2366.332,1917.369,2366.332Z" transform="translate(-1894.38 -2366.332)" fill="#87bcd9"/>
                  <path id="Path_702" data-name="Path 702" d="M1934.921,2366.332l-3.078,4.694,25.852,8.281s1.726-1.651-4.617-4.968C1945.692,2370.474,1934.921,2366.332,1934.921,2366.332Z" transform="translate(-1907.34 -2366.332)" fill="#87bcd9"/>
                </g>
                <rect id="Rectangle_573" data-name="Rectangle 573" width="5.402" height="19.233" transform="translate(25.23)" fill="#87bcd9"/>
                <g id="Group_852" data-name="Group 852" transform="translate(5.61 14.953)">
                  <path id="Path_703" data-name="Path 703" d="M1918.592,2367.845l2.632,4.479-22.129,7.9s-1.478-1.575,3.95-4.742A173.15,173.15,0,0,1,1918.592,2367.845Z" transform="translate(-1898.911 -2367.845)" fill="#abd4f3"/>
                  <path id="Path_704" data-name="Path 704" d="M1935.682,2367.845l-2.63,4.479,22.128,7.9s1.478-1.575-3.952-4.742A172.916,172.916,0,0,0,1935.682,2367.845Z" transform="translate(-1910.723 -2367.845)" fill="#abd4f3"/>
                </g>
                <path id="Path_705" data-name="Path 705" d="M1901.038,2388.5a1.877,1.877,0,1,1-1.877-1.88A1.877,1.877,0,0,1,1901.038,2388.5Z" transform="translate(-1892.738 -2359.389)" fill="#001f46"/>
                <path id="Path_706" data-name="Path 706" d="M1966.6,2388.5a1.879,1.879,0,1,1-1.88-1.88A1.879,1.879,0,0,1,1966.6,2388.5Z" transform="translate(-1915.419 -2359.389)" fill="#001f46"/>
                <path id="Path_707" data-name="Path 707" d="M1894.09,2388.5a1.878,1.878,0,1,1-1.877-1.88A1.876,1.876,0,0,1,1894.09,2388.5Z" transform="translate(-1890.334 -2359.389)" fill="#367081"/>
                <path id="Path_708" data-name="Path 708" d="M1973.547,2388.5a1.875,1.875,0,1,1-1.877-1.88A1.876,1.876,0,0,1,1973.547,2388.5Z" transform="translate(-1917.825 -2359.389)" fill="#367081"/>
              </g>
              <rect id="Rectangle_574" data-name="Rectangle 574" width="3.952" height="6.917" transform="translate(33.567 69.677)" fill="#367081"/>
              <path id="Path_709" data-name="Path 709" d="M1935.26,2326.582a3.853,3.853,0,0,1-3.852,3.851h-2.174a3.853,3.853,0,0,1-3.852-3.851h0a3.853,3.853,0,0,1,3.852-3.855h2.174a3.853,3.853,0,0,1,3.852,3.855Z" transform="translate(-1894.778 -2260.557)" fill="#367081"/>
              <path id="Path_710" data-name="Path 710" d="M1946.689,2318.25c.092-.454.146-3.3.146-3.787,0-3.111-2.009-5.632-4.491-5.632h-50.052c-2.478,0-4.49,2.521-4.49,5.632,0,.489.053,3.333.15,3.787Z" transform="translate(-1881.777 -2255.75)" fill="#8cceff"/>
              <path id="Path_711" data-name="Path 711" d="M1887.095,2324.651c0,.953.555,1.727,1.245,1.727h57.469c.69,0,1.245-.774,1.245-1.727h0c0-.952-.555-1.724-1.245-1.724H1888.34c-.69,0-1.245.772-1.245,1.724Z" transform="translate(-1881.532 -2260.627)" fill="#367081"/>
              <g id="Group_854" data-name="Group 854" transform="translate(5.669)">
                <path id="Path_712" data-name="Path 712" d="M1891.253,2261.271c1.236.091,9.081.23,10.433.247,8.589.1,15.985-1.509,16.4-3.623a73.294,73.294,0,0,0,.222-26.6c-.367-2.114-7.873-3.726-16.644-3.619-1.377.017-9.385.156-10.645.249A71.949,71.949,0,0,1,1891.253,2261.271Z" transform="translate(-1888.558 -2227.672)" fill="#8cceff"/>
                <path id="Path_713" data-name="Path 713" d="M1888.773,2228.059c-.961.011-1.632.468-1.5,1.019a71.883,71.883,0,0,1,.27,31.312c-.122.553.543,1.009,1.483,1.02h0c.94.014,1.812-.428,1.93-.982a71.969,71.969,0,0,0-.2-31.388c-.129-.555-1.016-.994-1.981-.981Z" transform="translate(-1887.258 -2227.806)" fill="#367081"/>
                <path id="Path_714" data-name="Path 714" d="M1888.849,2261.32a21.613,21.613,0,0,0,2.253.15,4.522,4.522,0,0,0,4.171-3.708,72.082,72.082,0,0,0-.121-26.193,4.61,4.61,0,0,0-4.274-3.707,22.186,22.186,0,0,0-2.292.152A71.887,71.887,0,0,1,1888.849,2261.32Z" transform="translate(-1887.717 -2227.737)" fill="#7dc1f4"/>
              </g>
            </g>
            <g id="Group_856" data-name="Group 856">
              <path id="Path_715" data-name="Path 715" d="M1920.5,2179.973s-10.713-9.62-2.449-24.885c4.58-8.463,2.177-31.584-12.65-24.409s-10.812-1.771-19.183,2.221-12.08,9.994-10.952,16.545.4,19.03-4.753,21.43-29.814,15.823-13.918,32.779S1930.295,2208.158,1920.5,2179.973Z" transform="translate(-1851.328 -2129.318)" fill="#212957"/>
              <path id="Path_716" data-name="Path 716" d="M1911.972,2170.655s2.355,11.775.785,15.962,10.729,1.047,10.729,1.047-.523-9.682-.785-11.776S1911.972,2170.655,1911.972,2170.655Z" transform="translate(-1872.308 -2143.619)" fill="#c67844"/>
              <path id="Path_717" data-name="Path 717" d="M1922.7,2175.888c-.262-2.094-10.729-5.233-10.729-5.233s7.611,11.036,10.2,11.253a4.813,4.813,0,0,0,.973-.014C1923,2179.406,1922.82,2176.849,1922.7,2175.888Z" transform="translate(-1872.308 -2143.619)" fill="#a25b2c"/>
              <path id="Path_718" data-name="Path 718" d="M1927.437,2152.651s.785,10.729-.523,13.869-1.832,5.5-4.972,5.234-8.112-4.972-10.99-6.8-4.972-3.925-3.925-6.542,2.354-.523,2.354.262,8.112,2.094,14.393-1.832C1925.343,2155.857,1927.7,2154.221,1927.437,2152.651Z" transform="translate(-1870.503 -2137.39)" fill="#c67844"/>
              <path id="Path_719" data-name="Path 719" d="M1929.222,2257.918l25.173-20.428s4.81.527,2.551,3.6-17.18,21.113-17.18,21.113S1924.534,2269.119,1929.222,2257.918Z" transform="translate(-1877.966 -2166.741)" fill="#c67844"/>
              <path id="Path_720" data-name="Path 720" d="M1929.855,2274.441l45.706-9.769s14.654-5.582,8.723,9.42-23.725,63.153-23.725,63.153l15.7,9.769h-22.33l9.42-62.8s-16.4,9.071-25.121,10.119-26.168,1.046-25.47-3.49S1929.855,2274.441,1929.855,2274.441Z" transform="translate(-1872.574 -2175.793)" fill="#212957"/>
              <path id="Path_721" data-name="Path 721" d="M1969.474,2375.811s-.349,3.4-.349,4.449,2.268,4.012,2.443,4.884l.174.873h-17.1s-.349-1.744,2.443-4.013,3.663-3.838,4.012-6.716S1969.474,2375.811,1969.474,2375.811Z" transform="translate(-1887.067 -2214.013)" fill="#c4e0f8"/>
              <path id="Path_722" data-name="Path 722" d="M1930.765,2196.258s9.944,1.57,11.253,5.5.785,6.28.785,8.112S1930.241,2203.323,1930.765,2196.258Z" transform="translate(-1878.805 -2152.476)" fill="#dc000b"/>
              <path id="Path_723" data-name="Path 723" d="M1909.245,2194.258l10.728,1.308s12.038,12.561,14.654,13.084-.908,29.178-.261,33.059c.349,2.094-9.421,3.053-14.654,3.838a60.6,60.6,0,0,1-12.561,0,37.781,37.781,0,0,0,.786-17.009c-1.832-8.635-9.944-15.177-8.112-21.2S1896.422,2201.323,1909.245,2194.258Z" transform="translate(-1868.014 -2151.784)" fill="#fc2227"/>
              <path id="Path_724" data-name="Path 724" d="M1895.687,2204.764s2.878,8.112,2.355,13.346-2.094,18.055-2.094,18.055-3.139,14.916-9.159,13.085-5.5-18.842-1.308-29.57S1893.855,2202.147,1895.687,2204.764Z" transform="translate(-1862.044 -2155.225)" fill="#dc000b"/>
              <path id="Path_725" data-name="Path 725" d="M1884.551,2254.761s.262,3.009.262,3.663,2.878,1.439,5.888,1.439,25.252-12.822,27.345-13.739a47.363,47.363,0,0,1,8.112-2.355c1.177-.131,2.094-3.4,1.439-5.5-.432-1.385-.865-2.6-1.526-3a1.093,1.093,0,0,0-1.222.118c-.4.256-1.141.829-2,1.521-.381.309-.787.641-1.2.98-1.957,1.621-4,3.387-4,3.387s-13.476,2.486-18.841,4.841S1887.168,2251.359,1884.551,2254.761Z" transform="translate(-1862.822 -2165.929)" fill="#c67844"/>
              <path id="Path_726" data-name="Path 726" d="M1954.925,2236.254l-1.239-.162-5.651-.74,1.526,3-.916,4.579,3.795.655s.523-.655-.131-.916-1.57-.654-1.57-.654,1.832-.261,2.617-.392.916-.393.916-.786-.786-.654-.786-.654,1.44-.523,1.57-.916.392-.916.131-1.309S1955.317,2236.516,1954.925,2236.254Z" transform="translate(-1884.785 -2166.001)" fill="#a25b2c"/>
              <path id="Path_727" data-name="Path 727" d="M1908.542,2267.768H1921.1l40.822-8.722s10.816-3.489,6.978,6.978-17.445,68.037-17.445,68.037l-8.025-.7s1.4-38.031,5.234-44.66,4.187-8.722,4.187-8.722-25.47,13.607-35.937,12.909S1897.726,2284.167,1908.542,2267.768Z" transform="translate(-1869.404 -2174.005)" fill="#3b47bb"/>
              <path id="Path_728" data-name="Path 728" d="M1913.475,2273.375s-8.723,11.165-2.442,14.654,50.591-15.352,50.591-15.352-15,38.729-13.259,64.2" transform="translate(-1871.197 -2178.914)" fill="none" stroke="#8cceff" stroke-miterlimit="10" stroke-width="0.602"/>
            </g>
          </g>
          <g id="Group_862" data-name="Group 862" transform="translate(58.732 136.425)">
            <g id="Group_860" data-name="Group 860" transform="translate(7.037)">
              <path id="Path_729" data-name="Path 729" d="M1951.911,2240.761l-.024-.044.024-1.394h57.716v1.394s.01.031,0,.044l-.146.26c-.742,1.209-2.073,1.426-3.6,1.426h-50.228c-1.525,0-2.854-.217-3.6-1.426Z" transform="translate(-1951.888 -2209.555)" fill="#316090"/>
              <path id="Path_730" data-name="Path 730" d="M1966.11,2241.285a.049.049,0,0,1,0,.039l-.143.211a2.347,2.347,0,0,1-.844.709h-8.776c-1.467,0-2.746-.175-3.46-1.152l-.138-.212a.264.264,0,0,1-.026-.035l.015-.686h13.372Z" transform="translate(-1952.177 -2209.845)" fill="#163f59"/>
              <g id="Group_858" data-name="Group 858" transform="translate(21.725 30.089)">
                <rect id="Rectangle_575" data-name="Rectangle 575" width="28.839" height="0.985" fill="#163f59"/>
              </g>
              <g id="Group_859" data-name="Group 859" transform="translate(14.254)">
                <path id="Path_731" data-name="Path 731" d="M1973.681,2223.526l7.483-28.361a1.884,1.884,0,0,1,1.712-1.356h40.494a1.008,1.008,0,0,1,1,1.356l-7.482,28.361Z" transform="translate(-1973.681 -2193.81)" fill="#163f59"/>
                <path id="Path_732" data-name="Path 732" d="M2008.644,2215.14a1.952,1.952,0,0,0,1.93,2.621,3.648,3.648,0,0,0,3.314-2.621,1.954,1.954,0,0,0-1.93-2.625A3.65,3.65,0,0,0,2008.644,2215.14Z" transform="translate(-1985.746 -2200.281)" fill="#316090"/>
              </g>
            </g>
            <g id="Group_861" data-name="Group 861" transform="translate(0 32.854)">
              <path id="Path_733" data-name="Path 733" d="M1947.036,2343.125h-5.909l9.747-94.4h8.565Z" transform="translate(-1941.128 -2245.663)" fill="#163f59"/>
              <path id="Path_734" data-name="Path 734" d="M1963.91,2253.079l-3.757,28.588-4.456-30.809.218-2.13h7.487Z" transform="translate(-1946.168 -2245.663)" fill="#212957"/>
              <path id="Path_735" data-name="Path 735" d="M2068.048,2343.125h-5.906l9.747-94.4h8.565Z" transform="translate(-1982.994 -2245.663)" fill="#163f59"/>
              <path id="Path_736" data-name="Path 736" d="M2084.921,2253.079l-3.756,28.588-4.458-30.809.221-2.13h7.487Z" transform="translate(-1988.033 -2245.663)" fill="#212957"/>
              <path id="Path_737" data-name="Path 737" d="M2159.442,2343.125h5.908l-9.747-94.4h-8.566Z" transform="translate(-2012.365 -2245.663)" fill="#163f59"/>
              <path id="Path_738" data-name="Path 738" d="M2147.912,2253.079l11.464,29.133-3.251-31.354-.219-2.13h-7.487Z" transform="translate(-2012.667 -2245.663)" fill="#212957"/>
              <rect id="Rectangle_576" data-name="Rectangle 576" width="71.223" height="5.516" transform="translate(80.285)" fill="#387bff"/>
              <rect id="Rectangle_577" data-name="Rectangle 577" width="80.874" height="5.516" transform="translate(2.705)" fill="#7eb2ff"/>
            </g>
          </g>
        </g>
        <g id="Group_866" data-name="Group 866" transform="translate(114.64 2975.437)">
          <g id="Group_864" data-name="Group 864" transform="translate(55.912 0)">
            <path id="Path_739" data-name="Path 739" d="M594.314,203.837h-9.675V155.465h9.675v48.372Z" transform="translate(-584.639 -155.465)" fill="#ff6671" fill-rule="evenodd"/>
            <path id="Path_740" data-name="Path 740" d="M632.406,203.837h-9.673V155.465h9.673v48.372Z" transform="translate(-584.035 -155.465)" fill="#ff6671" fill-rule="evenodd"/>
            <path id="Path_741" data-name="Path 741" d="M594.314,155.465h-9.675l38.7,48.372h9.673l-38.7-48.372Z" transform="translate(-584.639 -155.465)" fill="#ff82a0" fill-rule="evenodd"/>
            <path id="Path_742" data-name="Path 742" d="M584.639,155.465h9.675v12.093l-9.675-12.093Z" transform="translate(-584.639 -155.465)" fill-rule="evenodd"/>
            <path id="Path_743" data-name="Path 743" d="M632.406,203.271h-9.673V191.177l9.673,12.093Z" transform="translate(-584.035 -154.899)" fill-rule="evenodd"/>
          </g>
          <g id="Group_865" data-name="Group 865" transform="translate(0 0)">
            <path id="Path_744" data-name="Path 744" d="M553.783,203.837a24.186,24.186,0,1,1,24.186-24.185,24.185,24.185,0,0,1-24.186,24.185Zm0-38.7a14.511,14.511,0,1,1-14.51,14.511,14.511,14.511,0,0,1,14.51-14.511Z" transform="translate(-529.599 -155.465)" fill="#fcc" fill-rule="evenodd"/>
            <path id="Path_745" data-name="Path 745" d="M553.481,174.517a4.832,4.832,0,1,1-4.831,4.832,4.833,4.833,0,0,1,4.831-4.832Z" transform="translate(-529.297 -155.163)" fill="#f99" fill-rule="evenodd"/>
          </g>
          <path id="Path_746" data-name="Path 746" d="M691.5,184.574V174.9H643.126v9.674Z" transform="translate(-527.8 -155.157)" fill="#eb6a89" fill-rule="evenodd"/>
        </g>
      </g>
    </g>
    <g id="Group_18072" data-name="Group 18072" transform="translate(1008 2336)">
      <g id="Group_18071" data-name="Group 18071" clip-path="url(#clip-path-3)">
        <path id="Path_13021" data-name="Path 13021" d="M86.315,0H76.788a14.28,14.28,0,1,0,0,28.56c6.355,0,12.686.02,19.056.02a4.757,4.757,0,0,1,0,9.514H86.315v9.522h9.529a14.279,14.279,0,0,0,0-28.559c-6.37,0-12.7-.02-19.056-.02a4.757,4.757,0,1,1,0-9.513h9.527Z" fill="#d12a51" fill-rule="evenodd"/>
        <rect id="Rectangle_625" data-name="Rectangle 625" width="9.527" height="9.529" transform="translate(81.551 0)" fill="#eb6a89"/>
        <rect id="Rectangle_626" data-name="Rectangle 626" width="9.53" height="9.529" transform="translate(91.078 0)" fill="#ff6671"/>
        <rect id="Rectangle_627" data-name="Rectangle 627" width="9.529" height="9.529" transform="translate(100.608 0)" fill="#ffd9f4"/>
        <rect id="Rectangle_628" data-name="Rectangle 628" width="9.527" height="9.528" transform="translate(81.551 38.099)" fill="#eb6a89"/>
        <rect id="Rectangle_629" data-name="Rectangle 629" width="9.529" height="9.528" transform="translate(72.022 38.099)" fill="#ff6671"/>
        <rect id="Rectangle_630" data-name="Rectangle 630" width="9.527" height="9.528" transform="translate(62.495 38.099)" fill="#ffd9f4"/>
        <rect id="Rectangle_631" data-name="Rectangle 631" width="47.616" height="9.523" transform="translate(0 23.799)" fill="#eb6a89"/>
      </g>
    </g>
  </g>
</svg>
